<svg width="74" height="74" viewBox="0 0 74 74" fill="none" xmlns="http://www.w3.org/2000/svg">
<path d="M1.64584 38.3609L1.2479 38.6594L1.64584 38.3609C1.04093 37.5545 1.04093 36.4455 1.64584 35.6391C2.39244 34.6438 2.50906 33.3109 1.94663 32.201C1.49095 31.3018 1.68351 30.2097 2.41926 29.5206C3.32736 28.6701 3.67367 27.3776 3.31251 26.187C3.0199 25.2223 3.39917 24.1803 4.2434 23.6294C5.2854 22.9494 5.85088 21.7367 5.70196 20.5015C5.58131 19.5006 6.13576 18.5403 7.06283 18.1444C8.20708 17.6557 8.97454 16.5596 9.04239 15.3173C9.09736 14.3107 9.81015 13.4612 10.7919 13.2323C12.0036 12.9497 12.9497 12.0036 13.2323 10.7919C13.4612 9.81015 14.3107 9.09736 15.3173 9.04239C16.5596 8.97454 17.6557 8.20708 18.1444 7.06283C18.5403 6.13576 19.5006 5.58131 20.5015 5.70196C21.7367 5.85088 22.9494 5.2854 23.6294 4.2434C24.1803 3.39917 25.2223 3.0199 26.187 3.31251C27.3776 3.67367 28.6701 3.32736 29.5206 2.41926C30.2097 1.68351 31.3018 1.49095 32.201 1.94663C33.3109 2.50906 34.6438 2.39244 35.6391 1.64584L35.3391 1.24586L35.6391 1.64584C36.4455 1.04093 37.5545 1.04093 38.3609 1.64584L38.6594 1.2479L38.3609 1.64584C39.3562 2.39244 40.6891 2.50906 41.799 1.94663C42.6982 1.49095 43.7903 1.68351 44.4794 2.41926C45.3299 3.32736 46.6224 3.67367 47.813 3.31251C48.7777 3.0199 49.8197 3.39917 50.3706 4.2434C51.0506 5.2854 52.2633 5.85088 53.4985 5.70196C54.4994 5.58131 55.4597 6.13576 55.8556 7.06283C56.3443 8.20708 57.4404 8.97454 58.6827 9.04239C59.6893 9.09736 60.5388 9.81015 60.7677 10.7919C61.0503 12.0036 61.9964 12.9497 63.2081 13.2323C64.1898 13.4612 64.9026 14.3107 64.9576 15.3173C65.0255 16.5596 65.7929 17.6557 66.9372 18.1444C67.8642 18.5403 68.4187 19.5006 68.298 20.5015C68.1491 21.7367 68.7146 22.9494 69.7566 23.6294C70.6008 24.1803 70.9801 25.2223 70.6875 26.187C70.3263 27.3776 70.6726 28.6701 71.5807 29.5206C72.3165 30.2097 72.509 31.3018 72.0534 32.201C71.4909 33.3109 71.6076 34.6438 72.3542 35.6391C72.9591 36.4455 72.9591 37.5545 72.3542 38.3609C71.6076 39.3562 71.491 40.6891 72.0534 41.799L72.4994 41.573L72.0534 41.799C72.509 42.6982 72.3165 43.7903 71.5807 44.4794C70.6726 45.3299 70.3263 46.6224 70.6875 47.813C70.9801 48.7777 70.6008 49.8197 69.7566 50.3706C68.7146 51.0506 68.1491 52.2633 68.298 53.4985C68.4187 54.4994 67.8642 55.4597 66.9372 55.8556C65.7929 56.3443 65.0255 57.4404 64.9576 58.6827C64.9026 59.6893 64.1898 60.5388 63.2081 60.7677C61.9964 61.0503 61.0503 61.9964 60.7677 63.2081C60.5388 64.1898 59.6893 64.9026 58.6827 64.9576C57.4404 65.0255 56.3443 65.7929 55.8556 66.9372C55.4597 67.8642 54.4994 68.4187 53.4985 68.298C52.2633 68.1491 51.0506 68.7146 50.3706 69.7566C49.8197 70.6008 48.7777 70.9801 47.813 70.6875C46.6224 70.3263 45.3299 70.6726 44.4794 71.5807C43.7903 72.3165 42.6982 72.509 41.799 72.0534L41.573 72.4994L41.799 72.0534C40.6891 71.491 39.3562 71.6076 38.3609 72.3542C37.5545 72.9591 36.4455 72.9591 35.6391 72.3542C34.6438 71.6076 33.3109 71.4909 32.201 72.0534C31.3018 72.509 30.2097 72.3165 29.5206 71.5807C28.6701 70.6726 27.3776 70.3263 26.187 70.6875C25.2223 70.9801 24.1803 70.6008 23.6294 69.7566C22.9494 68.7146 21.7367 68.1491 20.5015 68.298C19.5006 68.4187 18.5403 67.8642 18.1444 66.9372C17.6557 65.7929 16.5596 65.0255 15.3173 64.9576C14.3107 64.9026 13.4612 64.1898 13.2323 63.2081C12.9497 61.9964 12.0036 61.0503 10.7919 60.7677C9.81015 60.5388 9.09736 59.6893 9.04239 58.6827C8.97454 57.4404 8.20708 56.3443 7.06283 55.8556C6.13576 55.4597 5.58131 54.4994 5.70196 53.4985C5.85088 52.2633 5.2854 51.0506 4.2434 50.3706C3.39917 49.8197 3.0199 48.7777 3.31251 47.813C3.67367 46.6224 3.32736 45.3299 2.41926 44.4794C1.68351 43.7903 1.49095 42.6982 1.94663 41.799C2.50906 40.6891 2.39244 39.3562 1.64584 38.3609Z" fill="white" stroke="#B00E2F"/>
</svg>
