<?xml version="1.0" encoding="UTF-8"?>
<svg xmlns="http://www.w3.org/2000/svg" xmlns:xlink="http://www.w3.org/1999/xlink" width="812px" height="540px" viewBox="-120 0 812 540" version="1.1">
<g id="surface1">
<path fill="#FEE5CA" stroke="#B00E2F" d="M 866.3019 77.697049 L 866.5971 79 L 864.098199 87.297743 L 858.400154 93.298177 L 851.802779 97.796788 L 829.601 100.903299 L 820.202658 114.20026 L 830.301241 127.702951 L 830.802395 132.798177 L 831.900813 137.502517 L 836.898616 142.501736 L 847.498352 157.300521 L 847.100176 165.200521 L 843.097814 172.997656 L 839.596606 182.797222 L 833.898561 188.900521 L 806.101714 206.202344 L 796.497419 217.099132 L 779.300308 228.997135 L 771.796738 230.101215 L 768.700571 231.397309 L 765.796628 233.797483 L 759.501318 235.998785 L 745.297397 235.100434 L 737.99978 238.302951 L 725.999561 239.297309 L 723.500659 240.60026 L 720.699692 246.202951 L 716.601219 249.096875 L 712.097704 249.803212 L 703.200516 249.000868 L 695.696946 257.99809 L 686.696782 260.898872 L 677.202329 260.898872 L 669.897847 265.102604 L 663.602537 266.398698 L 656.401033 266.302691 L 652.796848 269.196615 L 649.501593 273.201476 L 635.599736 281.300347 L 631.89944 282.301562 L 628.103032 281.896962 L 625 284.4 L 623.400428 290.002691 L 620.79855 292.999479 L 617.798495 294.501302 L 610.30179 295.90026 L 578.797781 290.997049 L 577.898451 290.002691 L 577.301186 288.500868 L 575.701615 287.396788 L 573.999066 287.10191 L 570.099681 288.301997 L 567.497803 293.397222 L 564.600725 295.797396 L 561.202493 296.702604 L 559.699033 281.499219 L 554.598254 268.497135 L 549.003185 264.601997 L 537.600231 261.598351 L 527.000494 255.097309 L 519.400813 252.601128 L 517.499176 252.498264 L 515.103251 251.497049 L 513.599791 249.302604 L 510.599736 243.501042 L 508.100835 236.403385 L 499.498847 219.499306 L 514.197056 192.000174 L 517.698264 188.201042 L 521.899714 185.499132 L 529.897572 186.102604 L 535.499506 183.599566 L 535.698594 180.897656 L 536.899989 178.99809 L 538.499561 174.197743 L 540.298221 172.298177 L 541.499616 170.096875 L 541.499616 167.298958 L 541.897792 164.501042 L 536.899989 163.19809 L 527.096606 164.000434 L 523.499286 162.196875 L 525.497034 155.599826 L 522.902021 151.999566 L 517.801241 151.402951 L 513.002526 148.50217 L 509.59743 143.002344 L 507.79877 135.698958 L 507.496705 132.400434 L 509.103141 130.00026 L 513.496815 125.597656 L 515.000275 122.79974 L 516.20167 119.700087 L 515.103251 115.400347 L 513.098638 111.800087 L 510.901801 105.299045 L 511.602043 99.497483 L 513.997968 96.699566 L 522.799044 97.796788 L 525.201834 97.50191 L 524.796793 99.09974 L 523.897463 100.402691 L 523.499286 101.198177 L 523.101109 103.296615 L 523.101109 105.799653 L 524.501593 104.201823 L 526.197276 99.799219 L 526.602318 99.298611 L 527.398671 98.297396 L 529.897572 94.203385 L 532.499451 91.700347 L 534.497199 90.699132 L 535.101329 90.50026 L 542.797122 85.597049 L 544.49967 84.897569 L 548.399055 84.396962 L 554.797342 79.596615 L 556.197825 79.102865 L 557.598308 78.897135 L 558.202438 78.300521 L 558.600615 77.498177 L 559.396968 75.296875 L 560.399275 74.302517 L 561.202493 73.699045 L 561.099517 72.800694 L 560.70134 70.702257 L 562.197935 70.599392 L 621.40268 73.699045 L 678.898012 76.798698 L 714.500494 78.698264 L 757.702658 81.002431 L 813.097265 83.999219 L 855.098034 86.200521 L 861.901362 83.903212 L 863.802999 82.401389 Z M 866.3019 77.697049 " transform="matrix(0.569,0,0,0.56962,0,0)"/>
<path fill="#FEE5CA" stroke="#B00E2F" d="M 524.796793 99.09974 L 525.201834 97.50191 L 522.799044 97.796788 L 513.997968 96.699566 L 511.602043 99.497483 L 510.901801 105.299045 L 513.098638 111.800087 L 515.103251 115.400347 L 516.20167 119.700087 L 515.000275 122.79974 L 513.496815 125.597656 L 509.103141 130.00026 L 507.496705 132.400434 L 507.79877 135.698958 L 509.59743 143.002344 L 513.002526 148.50217 L 517.801241 151.402951 L 522.902021 151.999566 L 525.497034 155.599826 L 523.499286 162.196875 L 527.096606 164.000434 L 536.899989 163.19809 L 541.897792 164.501042 L 541.499616 167.298958 L 541.499616 170.096875 L 540.298221 172.298177 L 538.499561 174.197743 L 536.899989 178.99809 L 535.698594 180.897656 L 535.499506 183.599566 L 529.897572 186.102604 L 521.899714 185.499132 L 517.698264 188.201042 L 514.197056 192.000174 L 499.498847 219.499306 L 494.102867 221.899479 L 482.699912 222.598958 L 477.297067 220.397656 L 474.200901 218.402083 L 467.699638 211.599306 L 465.997089 210.59809 L 464.699583 209.00026 L 462.701834 207.800174 L 454.601 206.702951 L 448.902955 208.801389 L 445.202658 211.201562 L 436.696782 206.099479 L 418.799429 203.102691 L 415.497309 200.003038 L 412.600231 196.299913 L 409.099022 195.90217 L 392.197111 198.501215 L 379.49665 195.998177 L 376.79866 198.096615 L 372.803163 205.598872 L 365.896859 208.10191 L 362.697715 211.098698 L 362.203427 213.3 L 361.798385 215.700174 L 361.702274 219.300434 L 355.503076 221.796615 L 341.697331 218.100347 L 337.997034 218.49809 L 335.299044 222.400087 L 332.800143 227.701042 L 329.800088 238.200087 L 326.999121 239.900781 L 322.598583 234.599826 L 317.298715 231.699045 L 296.998572 230.896701 L 291.197551 227.303299 L 287.099077 219.999913 L 282.300362 214.102344 L 280.501703 195.799306 L 284.703152 191.602431 L 287.703207 186.301476 L 286.501812 182.701215 L 284.799264 179.903299 L 282.801516 178.902083 L 282.698539 175.596701 L 287.703207 173.203385 L 293.202164 173.998872 L 291.300527 169.898003 L 289.000714 166.599479 L 286.199747 164.103299 L 282.499451 156.498177 L 280.096661 153.597396 L 275.799099 150.497743 L 275.799099 141.198785 L 275.002746 131.796962 L 268.700571 112.499566 L 282.602428 109.098177 L 284.201999 106.601997 L 283.796957 102.398264 L 281.902186 99.703212 L 280.796902 97.303038 L 281.497144 94.203385 L 284.201999 91.501476 L 285.197441 86.9 L 284.497199 78.698264 L 281.401033 72.402951 L 273.197221 60.49809 L 266.098693 46.097049 L 273.499286 43.203125 L 277.700736 42.400781 L 281.497144 41.09783 L 290.998462 30.598785 L 321.101988 16.396615 L 358.79833 9.298958 L 375.700242 3.497396 L 402.302559 1.001215 L 418.703317 1.001215 L 420.900154 1.796701 L 424.497474 4.999219 L 425.897957 5.698698 L 427.90257 6.199306 L 462.001593 26.600781 L 468.200791 34.699653 L 469.203098 36.599219 L 470.198539 39.301128 L 470.301516 41.598438 L 468.502856 42.400781 L 466.999396 39.397135 L 465.200736 38.101042 L 463.999341 34.802517 L 462.296793 32.697222 L 457.601054 24.701215 L 456.701725 24.200608 L 453.200516 23.501128 L 452.301186 23.103385 L 451.29888 21.498698 L 448.497913 20.497483 L 442.60078 16.396615 L 436.696782 13.598698 L 435.797452 12.302604 L 432.502197 9.799566 L 431.698978 9.401823 L 430.497583 9.902431 L 429.797342 10.800781 L 428.396859 15.697135 L 428.19777 16.897222 L 428.19777 19.40026 L 428.8019 19.996875 L 431.197825 21.100955 L 432.900373 23.898872 L 434.300857 26.998524 L 433.90268 29.501562 L 433.90268 30.598785 L 435.09721 31.901736 L 434.499945 35.20026 L 435.598363 36.702083 L 437.5 36.297483 L 439.202548 34.103038 L 438.598418 36.996962 L 439.401637 39.301128 L 440.603032 41.200694 L 443.198045 48.99783 L 443.898286 50.698524 L 443.50011 54.600521 L 443.603087 61.403299 L 444.303328 67.801476 L 445.696946 70.702257 L 447.200406 71.202865 L 450.296573 73.500174 L 451.800033 74.096788 L 453.200516 74.199653 L 454.800088 74.70026 L 456.296683 75.701476 L 456.900813 77.203299 L 458.500384 79.500608 L 475.299319 85.000434 L 478.999616 85.199306 L 482.198759 83.498611 L 483.001977 84.396962 L 484.203372 85.000434 L 486.901362 85.898785 L 524.302504 80.302951 L 532.499451 76.29809 L 536.398836 75.296875 L 539.597979 73.897917 L 545.701065 67.49974 L 547.396749 66.697396 L 548.502032 67.602604 L 530.796902 81.297309 L 526.499341 83.498611 L 522.297891 84.698698 L 513.599791 85.501042 L 509.501318 87.098872 L 509.501318 88.100087 L 511.801131 91.19974 L 512.89955 91.803212 L 511.801131 92.797569 L 511.499066 95.197743 L 513.997968 96.699566 L 522.799044 97.796788 L 525.201834 97.50191 L 525.201834 98.798003 Z M 524.796793 99.09974 " transform="matrix(0.569,0,0,0.56962,0,0)"/>
<path fill="#FEE5CA" stroke="#B00E2F" d="M 224.798166 516.297917 L 233.50313 514.700087 L 237.601604 515.701302 L 248.798605 521.900608 L 250.597265 525.898611 L 250.89933 531.096701 L 255.196891 538.79783 L 264.897298 544.201649 L 270.300143 550.202083 L 281.799209 554.302951 L 302.401417 550.702691 L 306.101714 542.103212 L 310.303163 541.198003 L 322.001318 541.300868 L 332.999231 544.297656 L 342.898726 550.702691 L 341.903284 555.297309 L 340.598913 559.30217 L 338.100011 560.9 L 336.802504 564.301389 L 337.399769 571.200174 L 339.699583 577.097743 L 345.596716 578.496701 L 351.699802 577.200608 L 355.503076 578.29783 L 358.997419 581.198611 L 356.203317 587.898524 L 357.397847 604.199132 L 358.702219 612.099132 L 355.400099 614.197569 L 351.898891 614.999913 L 348.500659 614.801042 L 345.198539 615.898264 L 342.596661 618.703038 L 336.802504 632 L 335.800198 635.901997 L 335.202933 640.002865 L 333.603361 644.803212 L 330.397353 646.901649 L 325.701615 653.100955 L 322.09743 661.398698 L 313.797507 673.701302 L 306.602867 687.402865 L 304.303054 696.201215 L 300.801845 702.400521 L 294.698759 703.401736 L 289.501867 707.39974 L 282.300362 725.298177 L 281.902186 727.197743 L 279.101219 725.497049 L 276.801406 725.20217 L 274.103416 726.902865 L 274.103416 729.001302 L 277.302559 733.801649 L 278.400978 736.599566 L 279.197331 739.89809 L 280.199638 742.997743 L 281.998297 744.897309 L 284.497199 746.303125 L 286.302724 748.298698 L 287.298166 751.096615 L 287.497254 754.902604 L 288.801626 756.603299 L 289.000714 758.701736 L 288.300472 759.99783 L 287.099077 759.600087 L 285.602482 757.001042 L 284.998352 756.603299 L 283.501757 756.603299 L 283.302669 757.001042 L 283.302669 758.900608 L 282.101274 759.497222 L 280.302614 758.900608 L 279.403284 758.900608 L 278.201889 759.702951 L 276.602318 762.00026 L 275.600011 762.898611 L 273.300198 763.502083 L 271.302449 763.303212 L 269.297836 763.59809 L 267.101 765.497656 L 265.30234 768.302431 L 264.197056 770.400868 L 263.002526 772.101562 L 260.798825 773.699392 L 257.702658 777.903125 L 253.700297 778.198003 L 249.498847 775.996701 L 246.100615 772.897049 L 244.301955 770.59974 L 243.402625 768.597309 L 242.20123 763.303212 L 241.198924 760.402431 L 238.198869 757.199913 L 236.901362 754.902604 L 235.397902 752.900174 L 232.899 748.298698 L 231.498517 746.303125 L 229.301681 744.698437 L 224.798166 743.100608 L 223.102482 740.700434 L 222.800417 739.397483 L 222.800417 736.496701 L 222.100176 735.097743 L 221.200846 734.802865 L 216.601219 734.802865 L 213.999341 735.900087 L 212.701834 734.898872 L 212.296793 734.000521 L 210.999286 730.002517 L 207.800143 729.399045 L 206.797836 726.601128 L 207.601054 724.09809 L 209.598803 724.598698 L 208.898561 722.301389 L 210.999286 721.499045 L 212.502746 720.202951 L 214.301406 719.098872 L 215.798001 717.898785 L 216.498243 715.800347 L 218.097814 715.29974 L 221.296957 716.19809 L 222.999506 715.800347 L 223.898836 714.497396 L 225.999561 712.501823 L 226.596826 711.397743 L 226.802779 708.496962 L 227.503021 707.098003 L 227.200956 705.397309 L 230.297122 704.101215 L 229.397792 701.097569 L 220.898781 692.100347 L 217.802614 690.399653 L 214.596606 689.501302 L 210.999286 689.501302 L 209.701779 689.700174 L 208.198319 693.300434 L 206.996924 694.898264 L 205.397353 695.2 L 203.797781 694.500521 L 200.701615 692.100347 L 196.500165 691.702604 L 190.300967 697.703038 L 186.099517 698.498524 L 185.797452 697.497309 L 186.099517 696.502951 L 187.5 695.302865 L 187.699088 693.403299 L 187.197935 691.298003 L 186.298605 689.096701 L 185.001098 686.703385 L 183.696727 685.400434 L 182.001043 685.098698 L 176.097045 687.402865 L 173.399055 687.402865 L 172.698814 687.197135 L 167.701011 678.597656 L 167.199857 676.602083 L 164.700956 676.403212 L 156.401033 678.398785 L 155.398726 678.001042 L 154.698484 677.301563 L 153.298001 675.299132 L 152.199583 674.496788 L 132.297616 667.501997 L 128.103032 667.89974 L 127.196837 668.996962 L 126.201395 670.697656 L 125.102977 671.897743 L 123.702493 671.397135 L 123.098363 670.101042 L 123.503405 667.001389 L 123.400428 665.499566 L 122.199033 662.598785 L 120.702438 661.302691 L 118.896913 660.500347 L 116.899165 658.902517 L 115.896859 657.201823 L 114.702329 654.602778 L 113.802999 651.798003 L 113.500934 649.500694 L 114.201175 646.599913 L 114.997529 645.002083 L 115.100505 643.397396 L 113.500934 640.901215 L 110.899055 639.502257 L 105.201011 639.399392 L 104.301681 637.102083 L 103.800527 634.70191 L 102.702109 634.098438 L 101.397737 634.996788 L 100.498407 637.102083 L 100.100231 638.699913 L 99.001812 639.001649 L 97.601329 638.30217 L 96.399934 637.102083 L 95.596716 635.497396 L 90.598913 634.400174 L 88.697276 632.699479 L 87.900923 634.70191 L 86.500439 635.799132 L 85.299044 636.196875 L 84.399714 637.102083 L 84.797891 638.898785 L 86.397463 640.201736 L 87.900923 642.403038 L 87.997034 646.997656 L 86.802504 648.897222 L 86.397463 650.303038 L 86.603416 651.40026 L 86.699528 656.900087 L 86.500439 658.203038 L 75.097485 657.400694 L 71.500165 658.40191 L 69.39944 658.299045 L 69.39944 655.398264 L 70.799923 653.100955 L 74.301131 649.102951 L 79.401911 637.102083 L 83.802449 625.800694 L 84.097649 623.997135 L 84.097649 620.897483 L 84.296738 619.402517 L 84.797891 618.298437 L 86.301351 616.501736 L 86.500439 614.403299 L 86.603416 610.398438 L 87.399769 606.002691 L 88.800253 601.702951 L 90.502801 598.397569 L 89.699583 597.403212 L 90.200736 592.801736 L 88.800253 589.702083 L 86.500439 587.000174 L 84.701779 583.797656 L 83.898561 579.696788 L 83.301296 572.900868 L 85.202933 571.796788 L 101.198649 563.403038 L 103.999616 563.403038 L 109.896749 568.498264 L 112.800692 568.697135 L 117.798495 560.001649 L 121.100615 555.996788 L 128.398232 553.500608 L 142.403065 561.201736 L 149.501593 559.501042 L 160.499506 544.901128 L 170.302889 525.69974 L 172.499725 524.10191 L 176.000934 522.901823 L 179.000989 519.898177 L 180.401472 515.701302 L 182.39922 512.999392 L 197.502471 515.797309 L 200.097485 518.69809 L 200.502526 524.300781 L 206.001483 531.398438 L 213.903229 529.601736 L 219.999451 524.300781 Z M 224.798166 516.297917 " transform="matrix(0.569,0,0,0.56962,0,0)"/>
<path fill="#FEE5CA" stroke="#B00E2F" d="M 282.300362 214.102344 L 278.497089 212.902257 L 274.700681 212.998264 L 271.199473 214.602951 L 268.597594 219.197569 L 266.599846 224.697396 L 264.100945 235.40217 L 261.10089 235.902778 L 242.798495 235.498177 L 240.498682 238.700694 L 240.601659 245.297743 L 242.20123 251.298177 L 248.400428 257.401476 L 255.897133 259.301042 L 259.59743 261.200608 L 262.700461 265.198611 L 263.400703 269.998958 L 260.297671 273.79809 L 257.997858 278.001823 L 255.10078 280.696875 L 247.700187 283.001042 L 233.297177 291.497656 L 225.299319 304.198003 L 215.598913 313.29809 L 209.502691 315.698264 L 203.296628 316.500608 L 197.200406 312.900347 L 191.70145 311.000781 L 193.50011 303.196788 L 190.898232 295.00191 L 185.900428 293.89783 L 180.497583 294.700174 L 175.300692 298.801042 L 166.300527 310.301302 L 161.302724 313.997569 L 140.796628 313.901563 L 123.901582 319.703125 L 118.196672 319.998003 L 120.201285 322.699913 L 122.899275 323.200521 L 119.198978 330.401042 L 112.99978 337.498698 L 107.802889 338.301042 L 91.203043 332.801215 L 81.502636 338.198177 L 75.097485 352.098611 L 67.298715 363.098264 L 62.300912 365.196701 L 53.8019 366.602517 L 51.701175 369.901042 L 49.202274 378.699392 L 43.401252 372.102344 L 37.497254 369.798177 L 34.600176 365.800174 L 32.698539 364.901823 L 31.703098 363.900608 L 28.298001 357.200694 L 26.698429 355.397135 L 16.098693 347.497135 L 13.400703 346.098177 L 10.20156 342.203038 L 8.196946 341.29783 L 6.00011 341.201823 L 3.899385 340.502344 L 2.100725 339.103385 L 1.002307 336.799219 L 3.59732 334.50191 L 4.702603 332.499479 L 5.10078 329.399826 L 4.901692 327.301389 L 3.59732 321.499826 L 3.000055 319.799132 L 3.000055 318.797917 L 7.901746 315.197656 L 13.901856 312.001997 L 19.798989 307.297656 L 22.902021 304.101997 L 24.199528 301.098351 L 24.501593 299.699392 L 27.501648 290.297569 L 27.302559 287.897396 L 26.698429 285.497222 L 26.300253 282.80217 L 26.602318 280.600868 L 27.302559 278.598437 L 28.298001 277.096615 L 29.300308 276.5 L 30.096661 275.498785 L 32.602428 270.300694 L 31.298056 269.100608 L 31.002856 268.202257 L 29.403284 266.899306 L 28.799154 265.802083 L 28.497089 264.197396 L 28.298001 259.801649 L 25.497034 246.902431 L 24.501593 238.200087 L 22.400868 234.702691 L 21.398561 231.198438 L 19.002636 227.399306 L 18.199418 223.997917 L 18.199418 220.301649 L 18.398506 214.102344 L 18.199418 212.497656 L 16.20167 205.900608 L 14.69821 202.602083 L 15.103251 200.003038 L 14.897298 195.298698 L 15.899605 195.202691 L 17.698264 194.400347 L 19.002636 193.20026 L 19.201725 191.801302 L 17.403065 190.601215 L 18.398506 189.997743 L 18.398506 188.797656 L 17.403065 188.297049 L 18.00033 187.000955 L 18.899659 187.899306 L 21.597649 189.497135 L 22.702933 192.802517 L 24.103416 193.89974 L 26.897518 195.202691 L 28.902131 197.301128 L 30.000549 198.199479 L 34.298111 199.001823 L 39.700956 200.901389 L 41.499616 202.403212 L 43.099187 204.597656 L 46.29833 210.899826 L 47.499725 212.401649 L 48.000879 211.901042 L 48.09699 209.199132 L 48.598144 207.601302 L 49.401362 206.600087 L 50.801845 205.502865 L 50.801845 203.198698 L 49.703427 202.896962 L 47.19766 202.69809 L 46.00313 202.101476 L 42.900099 194.599219 L 43.600341 190.902951 L 46.00313 183.599566 L 47.19766 184.600781 L 49.202274 183.599566 L 50.801845 183.599566 L 50.101604 179.299826 L 50.49978 175.898438 L 51.097045 172.901649 L 51.502087 169.699132 L 50.801845 169.699132 L 50.49978 171.701562 L 49.799539 173.100521 L 47.396749 175.500694 L 46.401307 175.802431 L 45.302889 174.300608 L 47.396749 172.003299 L 46.00313 169.198524 L 43.600341 167.799566 L 32.602428 166.702344 L 31.002856 164.898785 L 32.300362 161.60026 L 31.703098 160.503038 L 30.700791 162.196875 L 29.897572 162.402604 L 27.899824 161.60026 L 27.000494 161.998003 L 24.796793 165.001649 L 27.796848 165.598264 L 29.403284 166.297743 L 30.302614 167.401823 L 30.096661 169.50026 L 28.998243 171.002083 L 27.796848 171.502691 L 26.897518 170.899219 L 24.103416 172.599913 L 21.398561 173.203385 L 21.398561 174.300608 L 22.702933 174.897222 L 21.398561 175.500694 L 20.40312 175.39783 L 18.796683 174.499479 L 17.698264 174.300608 L 16.002581 173.203385 L 11.197001 166.297743 L 8.6981 165.200521 L 7.901746 162.601476 L 6.103087 160.400174 L 7.901746 159.59783 L 9.59743 155.003212 L 11.197001 155.798698 L 12.302285 156.697049 L 15.398451 157.801128 L 25.201834 158.699479 L 29.197331 157.801128 L 33.000604 155.798698 L 40.202109 150.497743 L 66.502362 138.702604 L 89.301406 132.70217 L 117.002142 121.003038 L 134.899495 116.202691 L 154.602373 110.901736 L 173.900209 102.103385 L 189.90279 100.100955 L 200.996815 96.39783 L 199.699308 97.597917 L 194.797616 99.902083 L 196.898341 101.397049 L 205.699418 99.902083 L 204.999176 98.798003 L 204.999176 97.50191 L 209.797891 97.50191 L 209.097649 96.39783 L 209.296738 93.599913 L 206.996924 93.497049 L 201.600945 95.197743 L 204.999176 93.497049 L 209.097649 90.801997 L 215.296848 83.498611 L 214.102318 86.097656 L 211.802504 88.401823 L 211.898616 89.403038 L 213.697276 88.998437 L 215.296848 88.298958 L 216.601219 86.701128 L 220.102428 85.000434 L 221.399934 83.498611 L 220.198539 81.002431 L 218.296902 81.002431 L 215.900978 83.498611 L 220.102428 76.202083 L 231.697605 61.300434 L 231.697605 62.397656 L 231.100341 64.002344 L 232.102647 64.502951 L 233.79833 63.899479 L 234.999725 62.397656 L 235.699967 60.100347 L 235.102702 59.400868 L 233.79833 59.901476 L 232.301736 61.300434 L 234.299484 57.199566 L 237.800692 53.70217 L 244.597155 49.498438 L 265.398451 46.398785 L 266.098693 46.097049 L 273.197221 60.49809 L 281.401033 72.402951 L 284.497199 78.698264 L 285.197441 86.9 L 284.201999 91.501476 L 281.497144 94.203385 L 280.796902 97.303038 L 281.902186 99.703212 L 283.796957 102.398264 L 284.201999 106.601997 L 282.602428 109.098177 L 268.700571 112.499566 L 275.002746 131.796962 L 275.799099 141.198785 L 275.799099 150.497743 L 280.096661 153.597396 L 282.499451 156.498177 L 286.199747 164.103299 L 289.000714 166.599479 L 291.300527 169.898003 L 293.202164 173.998872 L 287.703207 173.203385 L 282.698539 175.596701 L 282.801516 178.902083 L 284.799264 179.903299 L 286.501812 182.701215 L 287.703207 186.301476 L 284.703152 191.602431 L 280.501703 195.799306 Z M 282.300362 214.102344 " transform="matrix(0.569,0,0,0.56962,0,0)"/>
<path fill="#FEE5CA" stroke="#B00E2F" d="M 191.70145 311.000781 L 189.696837 320.601476 L 190.101878 331.100521 L 180.401472 343.601997 L 183.401527 346.399913 L 185.598363 354.601649 L 184.602922 357.09783 L 182.701285 358.400781 L 173.302944 361.397569 L 171.703372 361.198698 L 171.00313 362.700521 L 170.900154 366.396788 L 170.501977 369.901042 L 170.900154 379.097135 L 174.401362 388.800694 L 175.602757 394.499392 L 176.39911 400.499826 L 176.39911 405.403038 L 173.70112 405.403038 L 171.600395 406.898003 L 175.801845 414.40026 L 177.799594 419.200608 L 177.998682 429.30191 L 174.799539 438.79974 L 174.298385 441.199913 L 174.099297 443.702951 L 172.897902 448.503299 L 172.897902 453.90026 L 173.598144 459.002344 L 176.000934 462.49974 L 178.698924 465.297656 L 184.19788 468.301302 L 186.003405 473.300521 L 188.303218 477.497396 L 191.797562 481.097656 L 195.497858 481.200521 L 197.200406 480.398177 L 198.902955 481.502257 L 198.999066 484.697917 L 198.099736 487.797569 L 197.70156 493.40026 L 199.102043 497.7 L 203.399605 500.600781 L 207.90312 502.102604 L 215.200736 497.199392 L 221.701999 504.297049 L 224.798166 516.297917 L 219.999451 524.300781 L 213.903229 529.601736 L 206.001483 531.398438 L 200.502526 524.300781 L 200.097485 518.69809 L 197.502471 515.797309 L 182.39922 512.999392 L 180.401472 515.701302 L 179.000989 519.898177 L 176.000934 522.901823 L 172.499725 524.10191 L 170.302889 525.69974 L 160.499506 544.901128 L 149.501593 559.501042 L 142.403065 561.201736 L 128.398232 553.500608 L 121.100615 555.996788 L 117.798495 560.001649 L 112.800692 568.697135 L 109.896749 568.498264 L 103.999616 563.403038 L 101.198649 563.403038 L 85.202933 571.796788 L 83.301296 572.900868 L 82.999231 568.697135 L 83.802449 566.701563 L 82.800143 564.50026 L 80.898506 562.49783 L 79.401911 561.297743 L 77.102098 560.200521 L 72.502471 558.801563 L 70.202658 557.498611 L 68.101933 555.996788 L 61.60067 553.802344 L 59.396968 551.498177 L 58.799703 548.70026 L 59.602922 545.497743 L 61.60067 542.500955 L 62.802065 539.298437 L 62.602977 534.998698 L 61.60067 530.89783 L 60.303163 528.202778 L 55.497583 524.10191 L 53.19777 521.502865 L 52.202329 517.401997 L 51.797287 513.102257 L 50.396804 511.298698 L 48.598144 510.002604 L 46.998572 507.499566 L 46.703372 504.098177 L 48.000879 501.30026 L 53.698924 495.498698 L 55.60056 493.002517 L 57.097155 490.101736 L 57.900373 486.899219 L 58.29855 477.099653 L 58.799703 475.501823 L 61.003405 471.599826 L 61.401582 470.001997 L 61.902735 467.101215 L 62.699088 465.702257 L 64.497748 463.39809 L 58.00335 458.597743 L 57.001043 456.197569 L 57.598308 452.000694 L 58.696727 449.099913 L 59.101768 446.69974 L 57.598308 444.498438 L 57.598308 443.497222 L 59.602922 440.898177 L 59.602922 437.599653 L 58.099462 434.698872 L 55.298495 433.498785 L 52.497529 432.799306 L 49.099297 431.098611 L 46.799484 428.602431 L 47.396749 425.598785 L 45.399 420.901302 L 43.003076 413.700781 L 42.398946 407.19974 L 47.602702 402.701128 L 49.998627 398.799132 L 51.598199 395 L 51.200022 393.299306 L 49.298385 391.502604 L 50.101604 387.696615 L 52.90257 381.90191 L 49.799539 379.302865 L 49.202274 378.699392 L 51.701175 369.901042 L 53.8019 366.602517 L 62.300912 365.196701 L 67.298715 363.098264 L 75.097485 352.098611 L 81.502636 338.198177 L 91.203043 332.801215 L 107.802889 338.301042 L 112.99978 337.498698 L 119.198978 330.401042 L 122.899275 323.200521 L 120.201285 322.699913 L 118.196672 319.998003 L 123.901582 319.703125 L 140.796628 313.901563 L 161.302724 313.997569 L 166.300527 310.301302 L 175.300692 298.801042 L 180.497583 294.700174 L 185.900428 293.89783 L 190.898232 295.00191 L 193.50011 303.196788 Z M 191.70145 311.000781 " transform="matrix(0.569,0,0,0.56962,0,0)"/>
<path fill="#FEE5CA" stroke="#B00E2F" d="M 282.300362 214.102344 L 287.099077 219.999913 L 291.197551 227.303299 L 296.998572 230.896701 L 317.298715 231.699045 L 322.598583 234.599826 L 326.999121 239.900781 L 324.301131 246.100087 L 317.099627 255.597917 L 318.301022 260.597135 L 326.697056 267.201042 L 331.502636 278.001823 L 322.399495 285.702951 L 323.298825 292.800608 L 326.401856 298.698177 L 325.001373 308.998351 L 320.497858 319.401389 L 328.598693 322.30217 L 336.102263 328.000868 L 340.997089 338.801649 L 338.903229 350.397917 L 337.701834 352.702083 L 336.102263 353.298698 L 334.296738 353.202691 L 332.601054 354.402778 L 331.996924 358.702517 L 335.601109 362.097049 L 337.097704 365.999045 L 339.102318 369.201563 L 343.097814 369.997049 L 347.100176 368.59809 L 348.898836 367.00026 L 352.001867 369.70217 L 352.901197 371.896615 L 353.299374 374.598524 L 354.102592 375.59974 L 355.201011 376.203212 L 361.599297 378.397656 L 368.498737 378.802257 L 376.002307 382.903125 L 386.197001 392.202083 L 389.69821 394.101649 L 393.398506 394.300521 L 396.796738 395.699479 L 399.700681 399.29974 L 402.899824 402.399392 L 412.998407 404.998438 L 416.396639 403.496615 L 422.19766 396.700694 L 424.099297 397.201302 L 425.49978 398.202517 L 426.302999 401.199306 L 427.497529 403.798351 L 429.399165 406.603125 L 431.801955 407.398611 L 433.29855 406.50026 L 434.300857 404.696701 L 436.099517 403.901215 L 438.001153 403.702344 L 441.502362 405.300174 L 444.502417 408.900434 L 460.999286 422.403125 L 463.697276 428.602431 L 467.301461 428.300694 L 477.702109 423.89809 L 481.203317 423.397483 L 490.69777 430.598003 L 490.896859 435.898958 L 492.798495 439.999826 L 494.301955 440.397569 L 494.501043 442.002257 L 488.397957 447.899826 L 478.402351 452.199566 L 477.400044 456.698177 L 476.500714 466.902344 L 471.399934 472.799913 L 464.802559 474.397743 L 461.301351 474 L 458.198319 474.301736 L 456.797836 479.300955 L 456.097594 484.800781 L 457.202878 490.499479 L 459.097649 495.697569 L 458.699473 500.799653 L 453.900758 509.20026 L 452.80234 510.503212 L 438.303218 508.898524 L 432.598308 511.600434 L 430.099407 515.09783 L 425.396804 526.200347 L 422.897902 535.999913 L 422.396749 546.601823 L 423.399055 555.400174 L 423.502032 563.896788 L 420.701065 571.50191 L 415.998462 574.903299 L 410.602482 572.201389 L 405.597814 573.799219 L 403.902131 578.798437 L 401.403229 582.700434 L 394.201725 584.401128 L 392.602153 587.898524 L 392.801241 593.096615 L 394.702878 597.499219 L 400.400923 602.601302 L 401.403229 606.901042 L 402.000494 614.403299 L 390.700516 621.199219 L 378.899385 625.498958 L 372.501098 625.197222 L 367.297342 620.897483 L 366.700077 617.098351 L 365.40257 613.600955 L 362.10045 611.90026 L 358.702219 612.099132 L 357.397847 604.199132 L 356.203317 587.898524 L 358.997419 581.198611 L 355.503076 578.29783 L 351.699802 577.200608 L 345.596716 578.496701 L 339.699583 577.097743 L 337.399769 571.200174 L 336.802504 564.301389 L 338.100011 560.9 L 340.598913 559.30217 L 341.903284 555.297309 L 342.898726 550.702691 L 332.999231 544.297656 L 322.001318 541.300868 L 310.303163 541.198003 L 306.101714 542.103212 L 302.401417 550.702691 L 281.799209 554.302951 L 270.300143 550.202083 L 264.897298 544.201649 L 255.196891 538.79783 L 250.89933 531.096701 L 250.597265 525.898611 L 248.798605 521.900608 L 237.601604 515.701302 L 233.50313 514.700087 L 224.798166 516.297917 L 221.701999 504.297049 L 215.200736 497.199392 L 207.90312 502.102604 L 203.399605 500.600781 L 199.102043 497.7 L 197.70156 493.40026 L 198.099736 487.797569 L 198.999066 484.697917 L 198.902955 481.502257 L 197.200406 480.398177 L 195.497858 481.200521 L 191.797562 481.097656 L 188.303218 477.497396 L 186.003405 473.300521 L 184.19788 468.301302 L 178.698924 465.297656 L 176.000934 462.49974 L 173.598144 459.002344 L 172.897902 453.90026 L 172.897902 448.503299 L 174.099297 443.702951 L 174.298385 441.199913 L 174.799539 438.79974 L 177.998682 429.30191 L 177.799594 419.200608 L 175.801845 414.40026 L 171.600395 406.898003 L 173.70112 405.403038 L 176.39911 405.403038 L 176.39911 400.499826 L 175.602757 394.499392 L 174.401362 388.800694 L 170.900154 379.097135 L 170.501977 369.901042 L 170.900154 366.396788 L 171.00313 362.700521 L 171.703372 361.198698 L 173.302944 361.397569 L 182.701285 358.400781 L 184.602922 357.09783 L 185.598363 354.601649 L 183.401527 346.399913 L 180.401472 343.601997 L 190.101878 331.100521 L 189.696837 320.601476 L 191.70145 311.000781 L 197.200406 312.900347 L 203.296628 316.500608 L 209.502691 315.698264 L 215.598913 313.29809 L 225.299319 304.198003 L 233.297177 291.497656 L 247.700187 283.001042 L 255.10078 280.696875 L 257.997858 278.001823 L 260.297671 273.79809 L 263.400703 269.998958 L 262.700461 265.198611 L 259.59743 261.200608 L 255.897133 259.301042 L 248.400428 257.401476 L 242.20123 251.298177 L 240.601659 245.297743 L 240.498682 238.700694 L 242.798495 235.498177 L 261.10089 235.902778 L 264.100945 235.40217 L 266.599846 224.697396 L 268.597594 219.197569 L 271.199473 214.602951 L 274.700681 212.998264 L 278.497089 212.902257 Z M 282.300362 214.102344 " transform="matrix(0.569,0,0,0.56962,0,0)"/>
<path fill="#FEE5CA" stroke="#B00E2F" d="M 499.498847 219.499306 L 508.100835 236.403385 L 510.599736 243.501042 L 513.599791 249.302604 L 515.103251 251.497049 L 517.499176 252.498264 L 519.400813 252.601128 L 527.000494 255.097309 L 537.600231 261.598351 L 549.003185 264.601997 L 554.598254 268.497135 L 559.699033 281.499219 L 561.202493 296.702604 L 556.396913 300.597743 L 551.302999 302.997917 L 551.900264 306.097569 L 552.00324 309.402951 L 552.799594 314.299306 L 552.497529 317.501823 L 552.00324 320.800347 L 551.000934 323.598264 L 549.099297 323.303385 L 547.300637 322.000434 L 545.399 321.19809 L 543.202164 323.303385 L 541.396639 326.101302 L 537.202054 329.598698 L 532.403339 329.002083 L 533.899934 335.701997 L 533.398781 341.798437 L 531.401033 343.99974 L 530.597814 347.401128 L 531.703098 350.802517 L 533.302669 353.90217 L 536.199747 360.896962 L 536.302724 366.300781 L 531.998297 367.500868 L 525.297946 386.997135 L 522.702933 392.400955 L 522.098803 398.703125 L 524.199528 400.801562 L 524.597704 403.798351 L 517.197111 415.99809 L 516.798935 418.802865 L 516.20167 421.600781 L 514.197056 421.497917 L 512.302285 421.799653 L 511.10089 423.699219 L 510.20156 425.502778 L 506.398286 426.702865 L 494.102867 426.901736 L 492.400319 427.902951 L 491.700077 429.397917 L 490.69777 430.598003 L 481.203317 423.397483 L 477.702109 423.89809 L 467.301461 428.300694 L 463.697276 428.602431 L 460.999286 422.403125 L 444.502417 408.900434 L 441.502362 405.300174 L 438.001153 403.702344 L 436.099517 403.901215 L 434.300857 404.696701 L 433.29855 406.50026 L 431.801955 407.398611 L 429.399165 406.603125 L 427.497529 403.798351 L 426.302999 401.199306 L 425.49978 398.202517 L 424.099297 397.201302 L 422.19766 396.700694 L 416.396639 403.496615 L 412.998407 404.998438 L 402.899824 402.399392 L 399.700681 399.29974 L 396.796738 395.699479 L 393.398506 394.300521 L 389.69821 394.101649 L 386.197001 392.202083 L 376.002307 382.903125 L 368.498737 378.802257 L 361.599297 378.397656 L 355.201011 376.203212 L 354.102592 375.59974 L 353.299374 374.598524 L 352.901197 371.896615 L 352.001867 369.70217 L 348.898836 367.00026 L 347.100176 368.59809 L 343.097814 369.997049 L 339.102318 369.201563 L 337.097704 365.999045 L 335.601109 362.097049 L 331.996924 358.702517 L 332.601054 354.402778 L 334.296738 353.202691 L 336.102263 353.298698 L 337.701834 352.702083 L 338.903229 350.397917 L 340.997089 338.801649 L 336.102263 328.000868 L 328.598693 322.30217 L 320.497858 319.401389 L 325.001373 308.998351 L 326.401856 298.698177 L 323.298825 292.800608 L 322.399495 285.702951 L 331.502636 278.001823 L 326.697056 267.201042 L 318.301022 260.597135 L 317.099627 255.597917 L 324.301131 246.100087 L 326.999121 239.900781 L 329.800088 238.200087 L 332.800143 227.701042 L 335.299044 222.400087 L 337.997034 218.49809 L 341.697331 218.100347 L 355.503076 221.796615 L 361.702274 219.300434 L 361.798385 215.700174 L 362.203427 213.3 L 362.697715 211.098698 L 365.896859 208.10191 L 372.803163 205.598872 L 376.79866 198.096615 L 379.49665 195.998177 L 392.197111 198.501215 L 409.099022 195.90217 L 412.600231 196.299913 L 415.497309 200.003038 L 418.799429 203.102691 L 436.696782 206.099479 L 445.202658 211.201562 L 448.902955 208.801389 L 454.601 206.702951 L 462.701834 207.800174 L 464.699583 209.00026 L 465.997089 210.59809 L 467.699638 211.599306 L 474.200901 218.402083 L 477.297067 220.397656 L 482.699912 222.598958 L 494.102867 221.899479 Z M 499.498847 219.499306 " transform="matrix(0.569,0,0,0.56962,0,0)"/>
<path fill="#FEE5CA" stroke="#B00E2F" d="M 561.497693 666.898524 L 569.996705 668.503212 L 571.1981 669.202691 L 571.603141 670.999392 L 571.603141 672.898958 L 571.101988 674.20191 L 564.29866 675.299132 L 560.598363 682.396788 L 563.303218 685.70217 L 570.799923 687.800608 L 574.301131 690.502517 L 576.999121 696.701823 L 581.797836 702.503385 L 577.80234 703.1 L 570.9029 708.901562 L 568.898286 713.201302 L 572.399495 714.998003 L 579.202823 715.999219 L 581.996924 717.103299 L 582.601054 720.49783 L 582.90312 723.302604 L 570.29877 731.298611 L 567.099627 731.799219 L 561.60067 731.298611 L 556.101714 732.196962 L 547.300637 738.99974 L 544.698759 739.603212 L 542.199857 739.603212 L 536.700901 736.400694 L 534.002911 740.398698 L 531.201944 746.001389 L 526.897518 752.200694 L 520.197166 751.302344 L 517.101 753.702517 L 522.400868 758.996615 L 527.000494 765.401649 L 503.398232 792.002431 L 501.201395 795.300955 L 498.997693 799.799566 L 497.899275 804.997656 L 499.897023 807.596701 L 502.498902 807.898438 L 504.702603 810.600347 L 504.901692 815.798437 L 507.901746 821.099392 L 512.89955 823.101823 L 515.000275 826.79809 L 516.49687 831.598438 L 519.702878 834.602083 L 523.403174 836.302778 L 530.199638 837.502865 L 529.801461 841.500868 L 528.098913 844.998264 L 527.302559 848.200781 L 528.497089 850.998698 L 530.899879 852.603385 L 531.401033 854.297222 L 530.302614 854.400087 L 529.897572 855.099566 L 521.302449 864.70026 L 520.499231 865.296875 L 518.103306 866.099219 L 515.000275 866.003212 L 513.098638 866.496962 L 511.499066 867.299306 L 510.002471 868.602257 L 508.6981 870.796701 L 507.098528 875.802778 L 507.79877 877.201736 L 507.098528 878.49783 L 505.601933 878.600694 L 504.901692 881.597483 L 504.599627 883.497049 L 503.899385 884.697135 L 500.803218 886.000087 L 498.297452 886.500694 L 497.30201 886.39783 L 494.301955 884.498264 L 493.402625 884.100521 L 491.3019 884.697135 L 487.402515 886.898438 L 484.896749 887.097309 L 482.899 886.699566 L 482.397847 884.998872 L 482.802889 879.999653 L 482.500824 877.702344 L 482.102647 875.597049 L 481.99967 873.402604 L 482.802889 870.899566 L 479.898946 869.102865 L 470.102428 868.197656 L 470.500604 865.598611 L 470.198539 862.402951 L 468.798056 855.90191 L 467.198484 851.801042 L 466.697331 850.299219 L 465.997089 844.998264 L 465.598913 843.798177 L 464.102318 842.700955 L 462.598858 843.002691 L 460.999286 843.70217 L 459.598803 843.798177 L 458.301296 843.002691 L 456.399659 840.698524 L 455.102153 839.697309 L 453.598693 839.196701 L 450.598638 838.99783 L 449.198155 837.996615 L 448.60089 836.899392 L 447.598583 832.400781 L 445.29877 827.497569 L 443.50011 822.800087 L 443.50011 818.699219 L 446.1981 815.496701 L 443.603087 814.097743 L 443.198045 812.198177 L 443.397133 809.798003 L 442.799868 807.000087 L 441.303273 806.101736 L 437.397023 808.597917 L 435.09721 808.597917 L 427.696617 804.497049 L 423.797232 803.200955 L 420.199912 803.701563 L 420.501977 804.20217 L 417.701011 806.602344 L 416.197551 806.897222 L 414.199802 805.299392 L 413.698649 804.20217 L 412.600231 800.999653 L 411.398836 800.101302 L 409.099022 799.600694 L 407.897627 799.100087 L 404.698484 796.398177 L 403.201889 795.499826 L 396.899714 794.29974 L 395.602208 792.797917 L 396.199473 790 L 390.398451 786.098003 L 388.997968 785.803125 L 389.100945 783.197222 L 395.101054 771.600955 L 407.602428 768.899045 L 413.602537 764.400434 L 423.199967 759.901823 L 424.298385 755.300347 L 424.401362 747.400347 L 422.698814 727.300608 L 423.598144 724.09809 L 425.698869 723.700347 L 427.90257 722.699132 L 428.101659 719.798351 L 427.00324 717.103299 L 428.300747 713.599045 L 431.300802 712.899566 L 445.696946 713.002431 L 444.598528 707.296875 L 441.399385 703.902344 L 438.200242 701.399306 L 435.502252 697.799045 L 433.600615 691.901476 L 436.003405 685.400434 L 437.802065 675.600868 L 440.397078 669.998177 L 448.202713 664.902951 L 448.902955 659.30026 L 447.598583 656.399479 L 447.001318 652.799219 L 447.70156 650.399045 L 448.999066 648.897222 L 452.397298 636.697483 L 457.401966 634.297309 L 471.502911 633.796701 L 474.702054 632.301736 L 477.901197 630.100434 L 481.402406 630.799913 L 484.40246 633.899566 L 497.501098 640.901215 L 503.899385 642.300174 L 511.897243 642.197309 L 515.30234 639.200521 L 522.002691 640.496615 L 528.002801 646.003299 L 537.298166 660.89809 L 540.703262 661.899306 L 550.602757 661.398698 Z M 561.497693 666.898524 " transform="matrix(0.569,0,0,0.56962,0,0)"/>
<path fill="#FEE5CA" stroke="#B00E2F" d="M 516.20167 421.600781 L 525.799099 428.19783 L 536.302724 430.399132 L 541.396639 432.799306 L 550.602757 440.301562 L 571.301076 436.001823 L 574.50022 432.703299 L 578.200516 432.401563 L 580.898506 435.898958 L 583.301296 439.999826 L 586.397463 441.700521 L 589.898671 442.701736 L 592.699638 444.601302 L 593.901033 448.798177 L 594.299209 454.496875 L 596.296957 459.002344 L 597.697441 459.79783 L 599.297012 459.400087 L 606.100341 462.198003 L 609.999725 464.797049 L 611.400209 466.497743 L 610.30179 474.596615 L 606.99967 476.599045 L 607.802889 480.000434 L 610.500879 483.100087 L 612.896804 486.700347 L 612.601604 489.697135 L 613.500934 492.303038 L 617.098254 493.503125 L 627.69799 492.303038 L 634.30223 495.299826 L 641.49687 500.902517 L 647.400868 508.802517 L 647.998133 511.401563 L 647.098803 513.301128 L 646.103361 514.802951 L 645.602208 516.798524 L 646.501538 521.4 L 651.897518 527.002691 L 653.400978 531.096701 L 653.098913 534.902691 L 651.897518 537.597743 L 644.599901 536.603385 L 638.702768 533.298003 L 630.897133 533.298003 L 628.30212 542.39809 L 631.302175 549.502604 L 632.201505 554.398958 L 632.599681 559.501042 L 633.4029 562.100087 L 637.00022 563.896788 L 638.297726 565.302604 L 638.297726 570.500694 L 636.698155 574.903299 L 630.299868 580.896875 L 629.002362 585.196615 L 629.297562 589.900955 L 626.496595 591.999392 L 622.803163 601.099479 L 619.501043 602.601302 L 616.198924 603.10191 L 612.99978 604.69974 L 606.100341 611.296788 L 602.901197 612.201997 L 591.903284 610.597309 L 588.800253 611.797396 L 586.397463 614.999913 L 583.898561 624.600608 L 588.402076 631.499392 L 591.498243 634.002431 L 592.500549 639.303385 L 591.697331 644.398611 L 589.397518 647.100521 L 576.29888 637.499826 L 572.797671 638.103299 L 571.500165 643.198524 L 571.397188 648.300608 L 571.80223 653.196962 L 570.099681 657.997309 L 566.70145 660.301476 L 563.797507 663.003385 L 561.497693 666.898524 L 550.602757 661.398698 L 540.703262 661.899306 L 537.298166 660.89809 L 528.002801 646.003299 L 522.002691 640.496615 L 515.30234 639.200521 L 511.897243 642.197309 L 503.899385 642.300174 L 497.501098 640.901215 L 484.40246 633.899566 L 481.402406 630.799913 L 477.901197 630.100434 L 474.702054 632.301736 L 471.502911 633.796701 L 457.401966 634.297309 L 452.397298 636.697483 L 444.900593 630.697049 L 442.60078 626.102431 L 439.90279 622.899913 L 438.701395 623.503385 L 437.802065 625.197222 L 436.497693 626.301302 L 429.502142 626.500174 L 407.197386 620.801476 L 404.300308 618.401302 L 402.000494 614.403299 L 401.403229 606.901042 L 400.400923 602.601302 L 394.702878 597.499219 L 392.801241 593.096615 L 392.602153 587.898524 L 394.201725 584.401128 L 401.403229 582.700434 L 403.902131 578.798437 L 405.597814 573.799219 L 410.602482 572.201389 L 415.998462 574.903299 L 420.701065 571.50191 L 423.502032 563.896788 L 423.399055 555.400174 L 422.396749 546.601823 L 422.897902 535.999913 L 425.396804 526.200347 L 430.099407 515.09783 L 432.598308 511.600434 L 438.303218 508.898524 L 452.80234 510.503212 L 453.900758 509.20026 L 458.699473 500.799653 L 459.097649 495.697569 L 457.202878 490.499479 L 456.097594 484.800781 L 456.797836 479.300955 L 458.198319 474.301736 L 461.301351 474 L 464.802559 474.397743 L 471.399934 472.799913 L 476.500714 466.902344 L 477.400044 456.698177 L 478.402351 452.199566 L 488.397957 447.899826 L 494.501043 442.002257 L 494.301955 440.397569 L 492.798495 439.999826 L 490.896859 435.898958 L 490.69777 430.598003 L 491.700077 429.397917 L 492.400319 427.902951 L 494.102867 426.901736 L 506.398286 426.702865 L 510.20156 425.502778 L 511.10089 423.699219 L 512.302285 421.799653 L 514.197056 421.497917 Z M 516.20167 421.600781 " transform="matrix(0.569,0,0,0.56962,0,0)"/>
<path fill="#FEE5CA" stroke="#B00E2F" d="M 893.796683 428.396701 L 890.59754 434.397135 L 881.103087 448.400434 L 878.30212 455.100347 L 875 459.297222 L 871.100615 460.799045 L 859.40246 454.702604 L 855.400099 453.797396 L 853.601439 454.997483 L 851.898891 456.801042 L 851.301626 458.796615 L 850.800472 461.196788 L 845.301516 465.798264 L 834.296738 464.701042 L 830.50033 465.201649 L 820.999011 472.299306 L 817.497803 473.403385 L 812.397023 472.498177 L 798.797232 475.200087 L 784.401087 475.097222 L 776.801406 477.298524 L 769.702878 482.599479 L 770.300143 486.700347 L 771.899714 491.198958 L 773.897463 495.402691 L 774.302504 499.702431 L 776.698429 505.702865 L 780.199638 510.996962 L 774.700681 514.398351 L 770.897408 519.80217 L 775.902076 527.503299 L 775.297946 531.199566 L 772.799044 533.59974 L 765.700516 536.102778 L 758.499011 534.902691 L 754.901692 533.496875 L 751.297507 534.402083 L 750.302065 538.502951 L 750.398177 540.196788 L 751.702548 542.302083 L 753.103032 544.098785 L 755.897133 545.401736 L 760.997913 546.402951 L 762.796573 546.300087 L 765.199363 545.202865 L 766.20167 545.298872 L 767.698264 546.300087 L 768.103306 547.699045 L 768.00033 549.598611 L 768.199418 551.799913 L 769.998078 554.59783 L 770.300143 556.60026 L 768.796683 558.396962 L 768.796683 559.501042 L 771.899714 559.802778 L 771.796738 566.296962 L 769.400813 569.698351 L 766.998023 571.597917 L 766.798935 575.499913 L 770.801296 580.30026 L 770.197166 584.798872 L 769.002636 589.702083 L 769.201725 593.000608 L 768.103306 593.199479 L 767.197111 594.001823 L 765.899605 596.498003 L 764.100945 606.400434 L 762.89955 610.096701 L 762.796573 611.90026 L 763.002526 613.203212 L 763.901856 616.001128 L 764.69821 621.103212 L 767.101 627.199653 L 735.30179 633.899566 L 718.798056 628.701476 L 711.102263 628.001997 L 704.298935 623.599392 L 703.70167 621.199219 L 703.296628 618.497309 L 700.296573 615.198785 L 699.397243 609.801823 L 696.397188 608.800608 L 693.301022 611.797396 L 690.397078 615.802257 L 687.101823 617.701823 L 673.199967 619.903125 L 661.199747 617.400087 L 658.597869 615.500521 L 656.497144 612.099132 L 654.197331 609.500087 L 637.796573 599.398785 L 634.803383 591.903385 L 629.297562 589.900955 L 629.002362 585.196615 L 630.299868 580.896875 L 636.698155 574.903299 L 638.297726 570.500694 L 638.297726 565.302604 L 637.00022 563.896788 L 633.4029 562.100087 L 632.599681 559.501042 L 632.201505 554.398958 L 631.302175 549.502604 L 628.30212 542.39809 L 630.897133 533.298003 L 638.702768 533.298003 L 644.599901 536.603385 L 651.897518 537.597743 L 653.098913 534.902691 L 653.400978 531.096701 L 651.897518 527.002691 L 646.501538 521.4 L 645.602208 516.798524 L 646.103361 514.802951 L 647.098803 513.301128 L 647.998133 511.401563 L 647.400868 508.802517 L 641.49687 500.902517 L 634.30223 495.299826 L 627.69799 492.303038 L 617.098254 493.503125 L 613.500934 492.303038 L 612.601604 489.697135 L 612.896804 486.700347 L 610.500879 483.100087 L 607.802889 480.000434 L 606.99967 476.599045 L 610.30179 474.596615 L 611.400209 466.497743 L 609.999725 464.797049 L 606.100341 462.198003 L 599.297012 459.400087 L 597.697441 459.79783 L 596.296957 459.002344 L 594.299209 454.496875 L 593.901033 448.798177 L 592.699638 444.601302 L 589.898671 442.701736 L 586.397463 441.700521 L 583.301296 439.999826 L 580.898506 435.898958 L 578.200516 432.401563 L 574.50022 432.703299 L 571.301076 436.001823 L 550.602757 440.301562 L 541.396639 432.799306 L 536.302724 430.399132 L 525.799099 428.19783 L 516.20167 421.600781 L 516.798935 418.802865 L 517.197111 415.99809 L 524.597704 403.798351 L 524.199528 400.801562 L 522.098803 398.703125 L 522.702933 392.400955 L 525.297946 386.997135 L 531.998297 367.500868 L 536.302724 366.300781 L 536.199747 360.896962 L 533.302669 353.90217 L 531.703098 350.802517 L 530.597814 347.401128 L 531.401033 343.99974 L 533.398781 341.798437 L 533.899934 335.701997 L 532.403339 329.002083 L 537.202054 329.598698 L 541.396639 326.101302 L 543.202164 323.303385 L 545.399 321.19809 L 547.300637 322.000434 L 549.099297 323.303385 L 551.000934 323.598264 L 552.00324 320.800347 L 552.497529 317.501823 L 552.799594 314.299306 L 552.00324 309.402951 L 551.900264 306.097569 L 551.302999 302.997917 L 556.396913 300.597743 L 561.202493 296.702604 L 564.600725 295.797396 L 567.497803 293.397222 L 570.099681 288.301997 L 573.999066 287.10191 L 575.701615 287.396788 L 577.301186 288.500868 L 577.898451 290.002691 L 578.797781 290.997049 L 610.30179 295.90026 L 617.798495 294.501302 L 620.79855 292.999479 L 623.400428 290.002691 L 625 284.4 L 628.103032 281.896962 L 631.89944 282.301562 L 635.599736 281.300347 L 649.501593 273.201476 L 652.796848 269.196615 L 656.401033 266.302691 L 663.602537 266.398698 L 669.897847 265.102604 L 677.202329 260.898872 L 686.696782 260.898872 L 695.696946 257.99809 L 703.200516 249.000868 L 712.097704 249.803212 L 716.601219 249.096875 L 720.699692 246.202951 L 723.500659 240.60026 L 725.999561 239.297309 L 737.99978 238.302951 L 739.297287 244.097656 L 741.5971 249.501476 L 743.196672 256.098524 L 745.702438 275.299913 L 751.297507 289.303212 L 754.901692 296.400868 L 760.20156 299.198785 L 765.700516 300.001128 L 770.300143 303.601389 L 768.597594 306.598177 L 769.098748 310.80191 L 771.597649 315.300521 L 775.400923 317.398958 L 777.796848 319.998003 L 779.300308 324.098872 L 780.700791 330.099306 L 783.302669 335.002517 L 790.401197 338.698785 L 798.000879 337.498698 L 802.90257 332.101736 L 807.701285 335.798003 L 806.197825 344.89809 L 808.696727 348.402344 L 811.799758 350.596788 L 817.401692 347.798872 L 823.202713 346.201042 L 824.699308 353.90217 L 825.296573 362.501649 L 826.497968 368.303212 L 826.90301 374.399653 L 826.600945 377.999913 L 832.099901 383.897483 L 834.200626 386.798264 L 836.397463 388.69783 L 837.097704 389.699045 L 837.296793 391.296875 L 836.603416 393.902778 L 836.500439 395.397743 L 836.802504 397.503038 L 837.296793 398.799132 L 838.100011 399.601476 L 839.500494 399.800347 L 839.802559 400.602691 L 839.198429 405.999653 L 839.898671 407.803212 L 841.601219 410.203385 L 843.598967 411.698351 L 845.301516 410.998872 L 846.502911 412.898438 L 848.898836 413.50191 L 854.198704 413.200174 L 869.700132 416.402691 L 877.40279 415.298611 L 880.402845 416.299826 L 882.599681 418.501128 L 883.601988 422.197396 L 885.702713 421.100174 L 887.501373 422.197396 L 890.30234 425.598785 L 889.801186 426.401128 L 888.997968 428.897309 L 890.700516 429.898524 L 892.300088 429.397917 Z M 893.796683 428.396701 " transform="matrix(0.569,0,0,0.56962,0,0)"/>
<path fill="#FEE5CA" stroke="#B00E2F" d="M 767.101 627.199653 L 767.499176 629.400955 L 766.297781 630.998785 L 764.801186 631.499392 L 764.801186 632.596615 L 766.599846 634.002431 L 766.901911 637.102083 L 766.20167 643.898003 L 765.501428 645.200955 L 765.59754 647.100521 L 766.599846 647.8 L 766.998023 649.802431 L 769.496924 659.499132 L 769.998078 662.900521 L 770.300143 664.998958 L 770.40312 670.800521 L 769.599901 676.999826 L 768.899659 679.502865 L 767.698264 682.300781 L 766.20167 684.700955 L 764.40301 685.599306 L 761.801131 685.997049 L 760.098583 687.3 L 757.297616 692.100347 L 752.498902 697.703038 L 751.79866 700.103212 L 751.297507 703.202865 L 750.102977 705.603038 L 746.999945 709.299306 L 745.201285 710.897135 L 738.802999 712.501823 L 729.301681 716.801563 L 730.599187 719.997222 L 728.697551 721.999653 L 726.198649 723.501476 L 723.699747 724.002083 L 721.798111 723.19974 L 715.701889 728.500694 L 715.296848 728.699566 L 713.498188 728.898438 L 713.601164 730.798003 L 712.399769 731.600347 L 711.802504 731.600347 L 710.800198 730.798003 L 710.299044 732.999306 L 709.097649 734.103385 L 707.999231 734.7 L 707.401966 735.502344 L 707.298989 736.798437 L 705.699418 737.696788 L 703.99687 740.096962 L 702.19821 740.803299 L 700.296573 738.698003 L 698.902955 738.197396 L 697.900648 738.403125 L 693.802175 740.398698 L 690.80212 743.196615 L 689.29866 743.601215 L 681.898067 743.800087 L 680.902625 744.19783 L 679.0971 746.20026 L 678.101659 746.796875 L 675.396804 747.002604 L 674.099297 747.900955 L 672.499725 746.89974 L 671.202219 747.79809 L 669.801736 749.197049 L 668.202164 749.999392 L 664.398891 746.303125 L 663.698649 747.297483 L 663.101384 749.999392 L 661.000659 752.09783 L 659.799264 752.296701 L 659.002911 753.400781 L 658.597869 755.896962 L 657.197386 757.199913 L 653.998243 758.797743 L 652.796848 760.697309 L 652.398671 762.398003 L 649.398616 765.497656 L 636.299978 765.202778 L 629.002362 760.800174 L 627.100725 756.80217 L 622.59721 750.397135 L 620.901527 746.796875 L 619.198978 739.603212 L 614.702329 730.599132 L 606.99967 725.401042 L 598.596771 722.801997 L 595.301516 719.297743 L 591.402131 717.199306 L 581.996924 717.103299 L 579.202823 715.999219 L 572.399495 714.998003 L 568.898286 713.201302 L 570.9029 708.901562 L 577.80234 703.1 L 581.797836 702.503385 L 576.999121 696.701823 L 574.301131 690.502517 L 570.799923 687.800608 L 563.303218 685.70217 L 560.598363 682.396788 L 564.29866 675.299132 L 571.101988 674.20191 L 571.603141 672.898958 L 571.603141 670.999392 L 571.1981 669.202691 L 569.996705 668.503212 L 561.497693 666.898524 L 563.797507 663.003385 L 566.70145 660.301476 L 570.099681 657.997309 L 571.80223 653.196962 L 571.397188 648.300608 L 571.500165 643.198524 L 572.797671 638.103299 L 576.29888 637.499826 L 589.397518 647.100521 L 591.697331 644.398611 L 592.500549 639.303385 L 591.498243 634.002431 L 588.402076 631.499392 L 583.898561 624.600608 L 586.397463 614.999913 L 588.800253 611.797396 L 591.903284 610.597309 L 602.901197 612.201997 L 606.100341 611.296788 L 612.99978 604.69974 L 616.198924 603.10191 L 619.501043 602.601302 L 622.803163 601.099479 L 626.496595 591.999392 L 629.297562 589.900955 L 634.803383 591.903385 L 637.796573 599.398785 L 654.197331 609.500087 L 656.497144 612.099132 L 658.597869 615.500521 L 661.199747 617.400087 L 673.199967 619.903125 L 687.101823 617.701823 L 690.397078 615.802257 L 693.301022 611.797396 L 696.397188 608.800608 L 699.397243 609.801823 L 700.296573 615.198785 L 703.296628 618.497309 L 703.70167 621.199219 L 704.298935 623.599392 L 711.102263 628.001997 L 718.798056 628.701476 L 735.30179 633.899566 Z M 767.101 627.199653 " transform="matrix(0.569,0,0,0.56962,0,0)"/>
<path fill="#FEE5CA" stroke="#B00E2F" d="M 902.700736 429.596788 L 901.897518 430.097396 L 900.098858 430.097396 L 897.002691 428.19783 L 895.101054 427.800087 L 893.796683 428.396701 L 892.300088 429.397917 L 890.700516 429.898524 L 888.997968 428.897309 L 889.801186 426.401128 L 890.30234 425.598785 L 887.501373 422.197396 L 885.702713 421.100174 L 883.601988 422.197396 L 882.599681 418.501128 L 880.402845 416.299826 L 877.40279 415.298611 L 869.700132 416.402691 L 854.198704 413.200174 L 848.898836 413.50191 L 846.502911 412.898438 L 845.301516 410.998872 L 843.598967 411.698351 L 841.601219 410.203385 L 839.898671 407.803212 L 839.198429 405.999653 L 839.802559 400.602691 L 839.500494 399.800347 L 838.100011 399.601476 L 837.296793 398.799132 L 836.802504 397.503038 L 836.500439 395.397743 L 836.603416 393.902778 L 837.296793 391.296875 L 837.097704 389.699045 L 836.397463 388.69783 L 834.200626 386.798264 L 832.099901 383.897483 L 826.600945 377.999913 L 826.90301 374.399653 L 826.497968 368.303212 L 825.296573 362.501649 L 824.699308 353.90217 L 823.202713 346.201042 L 817.401692 347.798872 L 811.799758 350.596788 L 808.696727 348.402344 L 806.197825 344.89809 L 807.701285 335.798003 L 802.90257 332.101736 L 798.000879 337.498698 L 790.401197 338.698785 L 783.302669 335.002517 L 780.700791 330.099306 L 779.300308 324.098872 L 777.796848 319.998003 L 775.400923 317.398958 L 771.597649 315.300521 L 769.098748 310.80191 L 768.597594 306.598177 L 770.300143 303.601389 L 765.700516 300.001128 L 760.20156 299.198785 L 754.901692 296.400868 L 751.297507 289.303212 L 745.702438 275.299913 L 743.196672 256.098524 L 741.5971 249.501476 L 739.297287 244.097656 L 737.99978 238.302951 L 745.297397 235.100434 L 759.501318 235.998785 L 765.796628 233.797483 L 768.700571 231.397309 L 771.796738 230.101215 L 779.300308 228.997135 L 796.497419 217.099132 L 806.101714 206.202344 L 833.898561 188.900521 L 839.596606 182.797222 L 843.097814 172.997656 L 847.100176 165.200521 L 847.498352 157.300521 L 836.898616 142.501736 L 831.900813 137.502517 L 830.802395 132.798177 L 830.301241 127.702951 L 820.202658 114.20026 L 829.601 100.903299 L 851.802779 97.796788 L 858.400154 93.298177 L 864.098199 87.297743 L 866.5971 79 L 866.3019 77.697049 L 868.99989 76.29809 L 871.100615 76.599826 L 876.997748 79.699479 L 878.103032 79.802344 L 880.402845 79.301736 L 881.398286 79.596615 L 882.496705 80.700694 L 883.499011 83.29974 L 884.103141 84.396962 L 885.20156 85.199306 L 888.599791 85.597049 L 889.300033 86.502257 L 888.297726 90.102517 L 888.297726 91.899219 L 890.103251 94.402257 L 892.403065 94.402257 L 894.798989 93.401042 L 896.796738 93.003299 L 898.602263 93.798785 L 904.801461 98.996875 L 908.597869 101.397049 L 916.602592 104.400694 L 920.399 107.699219 L 921.401307 109.201042 L 923.199967 112.698437 L 924.099297 114.001389 L 925.197715 114.700868 L 927.29844 115.297483 L 928.19777 115.79809 L 929.900319 118.301128 L 931.197825 121.702517 L 932.303109 125.501649 L 933.099462 129.10191 L 934.602922 137.00191 L 934.602922 140.897049 L 933.099462 143.502951 L 931.898067 144.497309 L 930.902625 145.903125 L 930.799649 147.699826 L 931.197825 149.201649 L 932.001043 150.497743 L 933.099462 151.402951 L 933.998792 153.000781 L 933.497638 154.900347 L 933.600615 159.796701 L 934.699033 164.000434 L 936.003405 167.902431 L 936.998847 172.099306 L 937.898177 181.103385 L 938.996595 184.600781 L 941.399385 188.098177 L 941.598473 198.501215 L 944.001263 210.200347 L 952.397298 236.300521 L 957.099901 246.100087 L 959.097649 251.401042 L 963.100011 267.098177 L 964.898671 271.898524 L 966.697331 274.298698 L 967.699638 276.602865 L 968.399879 279.099045 L 969.601274 281.602083 L 971.399934 283.597656 L 973.102482 284.900608 L 974.097924 286.903038 L 973.898836 290.997049 L 972.999506 293.397222 L 971.798111 295.399653 L 970.898781 297.600955 L 970.699692 300.899479 L 971.599022 303.697396 L 974.599077 307.599392 L 975.697496 309.999566 L 975.896584 311.302517 L 975.697496 314.40217 L 976.500714 318.996788 L 976.301626 321.300955 L 975.203207 323.502257 L 974.901142 324.798351 L 974.997254 326.60191 L 975.697496 328.398611 L 975.999561 329.701563 L 977.001867 354.601649 L 975.697496 361.699306 L 971.701999 366.602517 L 958.500384 375.59974 L 941.797562 380.400087 L 933.00335 385.598177 L 924.202274 392.901563 L 912.099077 411.602344 L 908.096716 416.498698 L 906.298056 419.399479 L 901.602318 428.897309 Z M 902.700736 429.596788 " transform="matrix(0.569,0,0,0.56962,0,0)"/>
<path fill="#FEE5CA" stroke="#B00E2F" d="M 902.700736 429.596788 L 903.400978 430.20026 L 904.499396 431.79809 L 904.801461 433.903385 L 903.998243 436.797309 L 906.298056 438.299132 L 913.396584 440.198698 L 915.003021 439.602083 L 916.300527 440.898177 L 922.499725 443.298351 L 924.60045 443.497222 L 924.60045 444.498438 L 923.797232 446.00026 L 925.49978 445.698524 L 926.797287 446.301997 L 927.696617 447.200347 L 928.602812 447.399219 L 930.003295 445.698524 L 930.401472 446.398003 L 932.001043 448.002691 L 933.696727 446.398003 L 934.101768 447.59809 L 933.799703 449.600521 L 933.401527 450.101128 L 936.202493 455.696962 L 938.097265 456.300434 L 942.799868 456.197569 L 944.701505 457.301649 L 946.500165 460.90191 L 948.60089 462.198003 L 948.999066 464.001562 L 949.102043 465.901128 L 950.001373 467.896701 L 951.401856 474 L 952.500275 476.797917 L 950.900703 477.998003 L 949.603196 480.000434 L 947.797671 484.499045 L 947.09743 487.502691 L 947.001318 492.700781 L 946.397188 494.600347 L 947.09743 495.697569 L 945.9029 496.301042 L 945.497858 499.798437 L 944.39944 501.197396 L 945.9029 504.098177 L 947.797671 506.601215 L 946.603141 510.297483 L 944.701505 512.197049 L 942.60078 513.5 L 940.898232 515.502431 L 940.101878 518.403212 L 939.600725 522.099479 L 940.603032 523.999045 L 940.80212 525.00026 L 939.497748 525.898611 L 939.799813 527.002691 L 940.898232 528.799392 L 939.696837 530.397222 L 938.200242 530.801823 L 938.200242 532.00191 L 939.29866 533.298003 L 939.401637 534.799826 L 938.900483 539.202431 L 939.29866 541.49974 L 940.101878 543.701042 L 942.298715 547.500174 L 940.898232 547.500174 L 942.202603 550.003212 L 943.802175 550.599826 L 945.099681 551.40217 L 945.696946 554.501823 L 946.397188 556.799132 L 947.900648 557.903212 L 949.699308 558.499826 L 951.099791 559.501042 L 949.603196 562.696701 L 949.699308 563.697917 L 953.797781 569.698351 L 954.601 571.597917 L 953.502581 572.201389 L 952.80234 573.298611 L 952.603251 574.903299 L 953.200516 577.097743 L 951.401856 577.797222 L 949.699308 579.696788 L 948.298825 582.000955 L 947.797671 584.202257 L 948.401801 587.500781 L 950.001373 588.399132 L 951.90301 588.399132 L 953.598693 589.503212 L 959.097649 601.600087 L 961.397463 604.398003 L 966.402131 607.600521 L 971.200846 612.400868 L 972.299264 614.403299 L 970.596716 615.198785 L 970.198539 616.700608 L 971.701999 619.80026 L 974.297012 623.901128 L 975.203207 625.999566 L 976.397737 632.596615 L 975.896584 634.900781 L 976.699802 635.497396 L 979.198704 636.903212 L 980.297122 638.597049 L 980.599187 641.298958 L 981.203317 643.397396 L 982.699912 645.797569 L 989.400264 652.09974 L 997.700187 656.701215 L 998.997693 658.696788 L 997.803163 661.398698 L 994.700132 662.00217 L 991.398012 662.098177 L 989.400264 663.003385 L 986.798385 661.501562 L 983.997419 661.803299 L 981.697605 663.6 L 980.503076 666.30191 L 980.702164 669.298698 L 982.198759 671.301128 L 984.498572 672.398351 L 987.299539 672.802951 L 987.299539 673.701302 L 986.002032 676.499219 L 987.402515 678.899392 L 990.100505 680.600087 L 992.798495 681.299566 L 992.20123 684.796962 L 992.997583 688.198351 L 995.50335 694.301649 L 993.196672 698.299653 L 994.198978 705.80191 L 995.297397 708.702691 L 994.102867 710.499392 L 992.20123 712.501823 L 985.802944 715.800347 L 985.500879 717.699913 L 985.699967 720.696701 L 985.500879 722.801997 L 985.102702 724.502691 L 982.899 729.597917 L 977.599132 731.799219 L 959.598803 731.99809 L 956.200571 733.10217 L 954.401911 734.000521 L 953.09754 735.296615 L 951.999121 737.600781 L 950.701615 741.797656 L 940.699143 735.900087 L 937.5 730.996875 L 931.197825 726.998872 L 923.900209 726.203385 L 918.202164 726.697135 L 915.600286 727.897222 L 907.403339 737.203038 L 900.902076 742.401128 L 893.398506 743.998958 L 870.997638 743.299479 L 857.397847 739.397483 L 856.402406 737.100174 L 859.800637 736.29783 L 861.297232 735.399479 L 858.702219 733.499913 L 844.800362 736.29783 L 841.299154 734.7 L 838.697276 730.701997 L 837.997034 726.8 L 839.596606 723.501476 L 842.102373 720.202951 L 845.198539 719.201736 L 848.301571 719.599479 L 851.102537 718.001649 L 849.901142 714.202517 L 847.601329 709.799913 L 847.299264 707.598611 L 847.402241 705.500174 L 846.502911 703.998351 L 830.802395 695.597743 L 807.598308 689.700174 L 805.696672 686.401649 L 810.303163 677.898177 L 811.696782 673.900174 L 808.497638 671.102257 L 805.003295 668.900955 L 801.097045 667.399132 L 797.19766 667.598003 L 790.600286 672.199479 L 783.199692 671.801736 L 769.998078 662.900521 L 769.496924 659.499132 L 766.998023 649.802431 L 766.599846 647.8 L 765.59754 647.100521 L 765.501428 645.200955 L 766.20167 643.898003 L 766.901911 637.102083 L 766.599846 634.002431 L 764.801186 632.596615 L 764.801186 631.499392 L 766.297781 630.998785 L 767.499176 629.400955 L 767.101 627.199653 L 764.69821 621.103212 L 763.901856 616.001128 L 763.002526 613.203212 L 762.796573 611.90026 L 762.89955 610.096701 L 764.100945 606.400434 L 765.899605 596.498003 L 767.197111 594.001823 L 768.103306 593.199479 L 769.201725 593.000608 L 769.002636 589.702083 L 770.197166 584.798872 L 770.801296 580.30026 L 766.798935 575.499913 L 766.998023 571.597917 L 769.400813 569.698351 L 771.796738 566.296962 L 771.899714 559.802778 L 768.796683 559.501042 L 768.796683 558.396962 L 770.300143 556.60026 L 769.998078 554.59783 L 768.199418 551.799913 L 768.00033 549.598611 L 768.103306 547.699045 L 767.698264 546.300087 L 766.20167 545.298872 L 765.199363 545.202865 L 762.796573 546.300087 L 760.997913 546.402951 L 755.897133 545.401736 L 753.103032 544.098785 L 751.702548 542.302083 L 750.398177 540.196788 L 750.302065 538.502951 L 751.297507 534.402083 L 754.901692 533.496875 L 758.499011 534.902691 L 765.700516 536.102778 L 772.799044 533.59974 L 775.297946 531.199566 L 775.902076 527.503299 L 770.897408 519.80217 L 774.700681 514.398351 L 780.199638 510.996962 L 776.698429 505.702865 L 774.302504 499.702431 L 773.897463 495.402691 L 771.899714 491.198958 L 770.300143 486.700347 L 769.702878 482.599479 L 776.801406 477.298524 L 784.401087 475.097222 L 798.797232 475.200087 L 812.397023 472.498177 L 817.497803 473.403385 L 820.999011 472.299306 L 830.50033 465.201649 L 834.296738 464.701042 L 845.301516 465.798264 L 850.800472 461.196788 L 851.301626 458.796615 L 851.898891 456.801042 L 853.601439 454.997483 L 855.400099 453.797396 L 859.40246 454.702604 L 871.100615 460.799045 L 875 459.297222 L 878.30212 455.100347 L 881.103087 448.400434 L 890.59754 434.397135 L 893.796683 428.396701 L 895.101054 427.800087 L 897.002691 428.19783 L 900.098858 430.097396 L 901.897518 430.097396 Z M 902.700736 429.596788 " transform="matrix(0.569,0,0,0.56962,0,0)"/>
<path fill="#FEE5CA" stroke="#B00E2F" d="M 950.701615 741.797656 L 949.301131 743.998958 L 941.399385 752.598438 L 938.502307 754.902604 L 928.602812 762.596875 L 905.796902 787.400955 L 902.796848 792.002431 L 899.199528 794.903212 L 895.197166 799.298958 L 884.398341 815.201823 L 880.299868 819.501562 L 879.702603 820.701649 L 878.899385 823.897309 L 878.501208 825.001389 L 877.601878 825.796875 L 875.803218 826.503212 L 875 827.099826 L 873.997693 828.299913 L 867.901472 839.402431 L 866.198924 841.103125 L 865.100505 841.596875 L 862.99978 842.001476 L 861.798385 843.002691 L 861.098144 844.298785 L 859.40246 849.201997 L 851.802779 859.399306 L 849.399989 865.296875 L 851.301626 870.796701 L 851.898891 873.100868 L 852.599132 879.60191 L 853.203262 882.200955 L 854.500769 884.203385 L 856.697605 886.500694 L 857.198759 887.700781 L 857.699912 890.100955 L 858.997419 904.097396 L 858.599242 906.401562 L 856.99967 911.003038 L 855.503076 916.4 L 853.999616 919.698524 L 853.402351 921.59809 L 854.500769 922.098698 L 855.798275 920.398003 L 856.896694 921.700955 L 860.102702 923.902257 L 862.99978 927.797396 L 864.901417 929.203212 L 869.301955 931.699392 L 870.50335 933.201215 L 870.50335 934.497309 L 869.597155 937.500955 L 869.501043 939.503385 L 869.89922 940.998351 L 871.896968 944.598611 L 870.702438 946.998785 L 868.697825 946.100434 L 866.500989 944.098003 L 863.597045 942.80191 L 861.798385 940.298872 L 860.802944 939.297656 L 859.69766 939.201649 L 857.397847 939.901128 L 853.800527 939.599392 L 851.699802 939.798264 L 849.599077 939.503385 L 847.100176 937.898698 L 843.399879 933.701823 L 841.402131 933.098351 L 839.301406 935.100781 L 835.800198 933.400087 L 828.001428 933.098351 L 824.397243 931.898264 L 819.303328 926.899045 L 817.202603 926.000694 L 811.696782 926.199566 L 807.001043 924.800608 L 806.300802 924.197135 L 806.101714 923.202778 L 806.300802 921.097483 L 805.202384 919.897396 L 804.399165 919.801389 L 802.00324 920.103125 L 799.902515 919.499653 L 796.600395 917.401215 L 789.597979 916.002257 L 786.797012 913.999826 L 786.096771 909.096615 L 784.799264 903.699653 L 781.998297 899.098177 L 778.400978 895.696788 L 772.998133 893.001736 L 769.400813 889.600347 L 767.602153 888.599132 L 765.501428 888.900868 L 763.79888 890.498698 L 762.398396 892.199392 L 761.402955 892.898872 L 759.803383 891.698785 L 756.501263 886.500694 L 754.798715 884.8 L 753.803273 884.498264 L 752.299813 884.8 L 750.501153 883.997656 L 748.702493 882.200955 L 747.700187 881.501476 L 745.79855 881.000868 L 738.700022 881.803212 L 737.203427 882.399826 L 733.400154 871.797917 L 731.601494 860.599392 L 732.198759 855.202431 L 731.800582 849.798611 L 728.402351 839.100694 L 722.402241 832.599653 L 711.699528 827.998177 L 708.699473 825.303125 L 710.402021 821.401128 L 720.301516 813.802865 L 718.997144 809.297396 L 715.296848 807.301823 L 712.399769 807.102951 L 710.299044 804.599913 L 709.502691 802.398611 L 708.603361 800.697917 L 708.699473 794.697483 L 709.502691 787.798698 L 706.797836 764.400434 L 707.498078 755.602083 L 711.198374 749.197049 L 714.198429 741.797656 L 715.296848 728.699566 L 715.701889 728.500694 L 721.798111 723.19974 L 723.699747 724.002083 L 726.198649 723.501476 L 728.697551 721.999653 L 730.599187 719.997222 L 729.301681 716.801563 L 738.802999 712.501823 L 745.201285 710.897135 L 746.999945 709.299306 L 750.102977 705.603038 L 751.297507 703.202865 L 751.79866 700.103212 L 752.498902 697.703038 L 757.297616 692.100347 L 760.098583 687.3 L 761.801131 685.997049 L 764.40301 685.599306 L 766.20167 684.700955 L 767.698264 682.300781 L 768.899659 679.502865 L 769.599901 676.999826 L 770.40312 670.800521 L 770.300143 664.998958 L 769.998078 662.900521 L 783.199692 671.801736 L 790.600286 672.199479 L 797.19766 667.598003 L 801.097045 667.399132 L 805.003295 668.900955 L 808.497638 671.102257 L 811.696782 673.900174 L 810.303163 677.898177 L 805.696672 686.401649 L 807.598308 689.700174 L 830.802395 695.597743 L 846.502911 703.998351 L 847.402241 705.500174 L 847.299264 707.598611 L 847.601329 709.799913 L 849.901142 714.202517 L 851.102537 718.001649 L 848.301571 719.599479 L 845.198539 719.201736 L 842.102373 720.202951 L 839.596606 723.501476 L 837.997034 726.8 L 838.697276 730.701997 L 841.299154 734.7 L 844.800362 736.29783 L 858.702219 733.499913 L 861.297232 735.399479 L 859.800637 736.29783 L 856.402406 737.100174 L 857.397847 739.397483 L 870.997638 743.299479 L 893.398506 743.998958 L 900.902076 742.401128 L 907.403339 737.203038 L 915.600286 727.897222 L 918.202164 726.697135 L 923.900209 726.203385 L 931.197825 726.998872 L 937.5 730.996875 L 940.699143 735.900087 Z M 950.701615 741.797656 " transform="matrix(0.569,0,0,0.56962,0,0)"/>
<path fill="#FEE5CA" stroke="#B00E2F" d="M 402.000494 614.403299 L 404.300308 618.401302 L 407.197386 620.801476 L 429.502142 626.500174 L 436.497693 626.301302 L 437.802065 625.197222 L 438.701395 623.503385 L 439.90279 622.899913 L 442.60078 626.102431 L 444.900593 630.697049 L 452.397298 636.697483 L 448.999066 648.897222 L 447.70156 650.399045 L 447.001318 652.799219 L 447.598583 656.399479 L 448.902955 659.30026 L 448.202713 664.902951 L 440.397078 669.998177 L 437.802065 675.600868 L 436.003405 685.400434 L 433.600615 691.901476 L 435.502252 697.799045 L 438.200242 701.399306 L 441.399385 703.902344 L 444.598528 707.296875 L 445.696946 713.002431 L 431.300802 712.899566 L 428.300747 713.599045 L 427.00324 717.103299 L 428.101659 719.798351 L 427.90257 722.699132 L 425.698869 723.700347 L 423.598144 724.09809 L 422.698814 727.300608 L 424.401362 747.400347 L 424.298385 755.300347 L 423.199967 759.901823 L 413.602537 764.400434 L 407.602428 768.899045 L 395.101054 771.600955 L 389.100945 783.197222 L 388.997968 785.803125 L 387.302285 785.398524 L 387.796573 788.902778 L 388.297726 789.101649 L 389.897298 788.902778 L 390.59754 790 L 390.796628 791.501823 L 390.30234 792.201302 L 387.103196 793.202517 L 383.100835 793.298524 L 381.302175 793.799132 L 378.30212 796.398177 L 374.697935 797.502257 L 371.100615 796.699913 L 364.599352 790.301736 L 363.500934 788.697049 L 362.697715 786.900347 L 361.503185 783.197222 L 359.498572 781.002778 L 359.100395 780.097569 L 360.397902 777.903125 L 358.997419 777.601389 L 356.299429 776.298437 L 355.001922 775.900694 L 352.097979 776.799045 L 350.498407 776.099566 L 345.699692 770.003125 L 345.500604 768.803038 L 346.200846 767.301215 L 347.299264 766.697743 L 352.097979 766.498872 L 354.802834 765.497656 L 358.997419 762.898611 L 361.002032 761.197917 L 361.901362 758.797743 L 360.397902 755.999826 L 359.299484 754.902604 L 359.100395 753.297917 L 359.299484 751.898958 L 360.59699 748.497569 L 360.59699 747.599219 L 358.599242 744.801302 L 358.001977 744.300694 L 356.299429 743.601215 L 355.702164 743.998958 L 354.898946 746.399132 L 351.898891 750.5 L 350.203207 751.898958 L 347.903394 752.502431 L 338.999341 750.897743 L 334.200626 751.302344 L 331.296683 754.902604 L 330.301241 755.403212 L 329.202823 754.902604 L 328.296628 752.001823 L 326.099791 750.198264 L 323.902955 750.397135 L 322.797671 753.297917 L 321.500165 752.296701 L 320.799923 750.698872 L 320.600835 748.703299 L 320.799923 746.598003 L 319.303328 744.698437 L 321.101988 743.902951 L 319.001263 743.100608 L 314.401637 743.196615 L 311.998847 742.497135 L 308.497638 740.302691 L 307.502197 739.198611 L 306.898067 737.902517 L 305.998737 734.199392 L 305.003295 733.397049 L 302.00324 734.000521 L 300.602757 734.000521 L 299.298385 733.301042 L 296.998572 731.298611 L 295.900154 730.701997 L 285.698594 727.801215 L 283.398781 728.102951 L 281.902186 727.197743 L 282.300362 725.298177 L 289.501867 707.39974 L 294.698759 703.401736 L 300.801845 702.400521 L 304.303054 696.201215 L 306.602867 687.402865 L 313.797507 673.701302 L 322.09743 661.398698 L 325.701615 653.100955 L 330.397353 646.901649 L 333.603361 644.803212 L 335.202933 640.002865 L 335.800198 635.901997 L 336.802504 632 L 342.596661 618.703038 L 345.198539 615.898264 L 348.500659 614.801042 L 351.898891 614.999913 L 355.400099 614.197569 L 358.702219 612.099132 L 362.10045 611.90026 L 365.40257 613.600955 L 366.700077 617.098351 L 367.297342 620.897483 L 372.501098 625.197222 L 378.899385 625.498958 L 390.700516 621.199219 Z M 402.000494 614.403299 " transform="matrix(0.569,0,0,0.56962,0,0)"/>
<path fill="#FEE5CA" stroke="#B00E2F" d="M 715.296848 728.699566 L 714.198429 741.797656 L 711.198374 749.197049 L 707.498078 755.602083 L 706.797836 764.400434 L 709.502691 787.798698 L 708.699473 794.697483 L 708.603361 800.697917 L 709.502691 802.398611 L 710.299044 804.599913 L 712.399769 807.102951 L 715.296848 807.301823 L 718.997144 809.297396 L 720.301516 813.802865 L 710.402021 821.401128 L 708.699473 825.303125 L 711.699528 827.998177 L 722.402241 832.599653 L 728.402351 839.100694 L 731.800582 849.798611 L 732.198759 855.202431 L 731.601494 860.599392 L 733.400154 871.797917 L 737.203427 882.399826 L 735.30179 883.20217 L 733.901307 882.797569 L 730.201011 883.599913 L 728.498462 883.599913 L 718.798056 880.801997 L 713.202988 877.798351 L 711.898616 877.496615 L 710.099956 878.799566 L 706.996924 883.401042 L 705.198264 884.998872 L 703.09754 885.300608 L 701.600945 884.299392 L 700.200461 882.701563 L 698.401801 881.501476 L 696.80223 881.302604 L 692.799868 882.09809 L 691.200297 882.900434 L 689.202548 885.101736 L 690.397078 886.500694 L 692.696891 887.899653 L 694.001263 890.196962 L 693.101933 891.602778 L 691.303273 892.000521 L 689.202548 892.000521 L 687.602977 892.398264 L 685.598363 894.400694 L 682.303109 899.098177 L 680.202384 900.997743 L 677.799594 901.902951 L 676.000934 901.498351 L 674.401362 900.298264 L 672.80179 898.597569 L 670.900154 897.198611 L 669.300582 896.99974 L 667.598034 897.102604 L 665.401197 896.800868 L 663.801626 895.600781 L 655.000549 884.998872 L 653.400978 884.697135 L 649.700681 885.300608 L 646.597649 885.101736 L 645.602208 885.698351 L 644.002636 887.597917 L 642.897353 888.701997 L 640.501428 889.497483 L 638.297726 888.996875 L 629.901692 884.697135 L 628.30212 885.101736 L 628.398232 887.700781 L 623.20134 887.899653 L 619.102867 886.301823 L 617.901472 886.39783 L 616.899165 887.097309 L 616.5971 888.098524 L 615.800747 891.698785 L 615.100505 893.797222 L 614.599352 894.496701 L 606.896694 895.203038 L 605.400099 895.998524 L 603.299374 898.597569 L 602.297067 899.502778 L 600.100231 899.297049 L 599.297012 899.797656 L 597.402241 904.097396 L 596.097869 907.601649 L 594.903339 909.096615 L 594.299209 914.397569 L 593.296902 918.196701 L 591.299154 919.698524 L 587.997034 918.100694 L 582.90312 913.300347 L 580.102153 911.798524 L 576.90301 912.203125 L 575.097485 913.499219 L 571.80223 916.996615 L 569.598528 917.798958 L 564.998902 917.497222 L 562.5 916.502865 L 561.202493 914.80217 L 561.60067 912.696875 L 565.397078 906.600434 L 566.99665 905.702083 L 567.099627 904.20026 L 566.09732 902.897309 L 564.696837 901.902951 L 564.401637 900.702865 L 565.300967 899.00217 L 564.799813 891.602778 L 564.202548 888.996875 L 563.303218 886.102951 L 562.397023 885.396615 L 559.101768 886.802431 L 557.097155 887.001302 L 554.900319 886.802431 L 549.202274 884.8 L 549.401362 882.900434 L 549.298385 880.603125 L 549.902515 878.799566 L 545.900154 878.696701 L 543.902406 878.202951 L 542.199857 876.797135 L 541.602592 875.699913 L 540.003021 870.899566 L 538.197496 863.102431 L 537.002966 860.002778 L 534.703152 858.500955 L 533.899934 857.698611 L 532.300362 854.701823 L 531.401033 854.297222 L 530.899879 852.603385 L 528.497089 850.998698 L 527.302559 848.200781 L 528.098913 844.998264 L 529.801461 841.500868 L 530.199638 837.502865 L 523.403174 836.302778 L 519.702878 834.602083 L 516.49687 831.598438 L 515.000275 826.79809 L 512.89955 823.101823 L 507.901746 821.099392 L 504.901692 815.798437 L 504.702603 810.600347 L 502.498902 807.898438 L 499.897023 807.596701 L 497.899275 804.997656 L 498.997693 799.799566 L 501.201395 795.300955 L 503.398232 792.002431 L 527.000494 765.401649 L 522.400868 758.996615 L 517.101 753.702517 L 520.197166 751.302344 L 526.897518 752.200694 L 531.201944 746.001389 L 534.002911 740.398698 L 536.700901 736.400694 L 542.199857 739.603212 L 544.698759 739.603212 L 547.300637 738.99974 L 556.101714 732.196962 L 561.60067 731.298611 L 567.099627 731.799219 L 570.29877 731.298611 L 582.90312 723.302604 L 582.601054 720.49783 L 581.996924 717.103299 L 591.402131 717.199306 L 595.301516 719.297743 L 598.596771 722.801997 L 606.99967 725.401042 L 614.702329 730.599132 L 619.198978 739.603212 L 620.901527 746.796875 L 622.59721 750.397135 L 627.100725 756.80217 L 629.002362 760.800174 L 636.299978 765.202778 L 649.398616 765.497656 L 652.398671 762.398003 L 652.796848 760.697309 L 653.998243 758.797743 L 657.197386 757.199913 L 658.597869 755.896962 L 659.002911 753.400781 L 659.799264 752.296701 L 661.000659 752.09783 L 663.101384 749.999392 L 663.698649 747.297483 L 664.398891 746.303125 L 668.202164 749.999392 L 669.801736 749.197049 L 671.202219 747.79809 L 672.499725 746.89974 L 674.099297 747.900955 L 675.396804 747.002604 L 678.101659 746.796875 L 679.0971 746.20026 L 680.902625 744.19783 L 681.898067 743.800087 L 689.29866 743.601215 L 690.80212 743.196615 L 693.802175 740.398698 L 697.900648 738.403125 L 698.902955 738.197396 L 700.296573 738.698003 L 702.19821 740.803299 L 703.99687 740.096962 L 705.699418 737.696788 L 707.298989 736.798437 L 707.401966 735.502344 L 707.999231 734.7 L 709.097649 734.103385 L 710.299044 732.999306 L 710.800198 730.798003 L 711.802504 731.600347 L 712.399769 731.600347 L 713.601164 730.798003 L 713.498188 728.898438 Z M 715.296848 728.699566 " transform="matrix(0.569,0,0,0.56962,0,0)"/>
</g>
</svg>
