<svg width="20" height="34" viewBox="0 0 20 34" fill="none" xmlns="http://www.w3.org/2000/svg">
<path d="M17.1562 2.70954C16.2756 1.836 15.2396 1.16646 14.0534 0.700923C12.862 0.235385 11.6032 0 10.2771 0H9.72287C8.39679 0 7.13805 0.235385 5.95183 0.700923C4.76042 1.16646 3.7296 1.836 2.849 2.70954C1.9684 3.58308 1.27428 4.66062 0.766641 5.93692C0.25382 7.21323 0 8.66738 0 10.2837V23.7477C0 25.3692 0.25382 26.8182 0.766641 28.0945C1.27428 29.3708 1.9684 30.4483 2.849 31.3218C3.7296 32.1954 4.76042 32.8649 5.95183 33.3305C6.91013 33.7071 7.91505 33.9268 8.96659 33.9948V28.2566C8.93551 28.2514 8.90443 28.2462 8.86817 28.2409C8.47967 28.1468 8.12225 27.948 7.78037 27.6342C7.43849 27.3255 7.14841 26.8862 6.89977 26.3265C6.65113 25.7668 6.50091 25.0188 6.43875 24.0825V9.95938C6.50091 9.02308 6.65631 8.27508 6.89977 7.71538C7.14841 7.15569 7.43849 6.71631 7.78037 6.40769C8.12225 6.09908 8.47967 5.89508 8.86817 5.80092C9.25667 5.70677 9.63481 5.65969 10.0026 5.65969C10.3704 5.65969 10.7485 5.70677 11.137 5.80092C11.5255 5.89508 11.8829 6.09908 12.2248 6.40769C12.5667 6.72154 12.8568 7.15569 13.1054 7.71538C13.3541 8.27508 13.5043 9.02308 13.5664 9.95938V24.0772C13.5043 25.0135 13.3489 25.7615 13.1054 26.3212C12.8568 26.8809 12.5667 27.3203 12.2248 27.6289C11.8881 27.9428 11.5255 28.1415 11.137 28.2357C11.1059 28.2462 11.0749 28.2462 11.0438 28.2514V34C12.0901 33.9268 13.1002 33.7123 14.0534 33.3357C15.2396 32.8702 16.2756 32.2006 17.1562 31.3271C18.0368 30.4535 18.7309 29.3812 19.2385 28.0997C19.7462 26.8234 20 25.3692 20 23.7529V10.2837C20 8.66215 19.7462 7.21323 19.2385 5.93692C18.7257 4.66062 18.0316 3.58308 17.1562 2.70954Z" fill="#FEE5CA"/>
</svg>
